# MagicaVoxel @ Ephtracy

# group
o 

# material
mtllib koran s noskom.mtl
usemtl palette

# normals
vn -1 0 0
vn 1 0 0
vn 0 0 1
vn 0 0 -1
vn 0 -1 0
vn 0 1 0

# texcoords
vt 0.416016 0.5
vt 0.447266 0.5
vt 0.591797 0.5
vt 0.982422 0.5
vt 0.986328 0.5
vt 0.994141 0.5

# verts
v -1.5 1.1 1.6
v -1.5 1.1 -1.9
v -1.5 1.2 0.6
v -1.5 1.2 -0.9
v -1.5 1.3 1.2
v -1.5 1.3 0.8
v -1.5 1.3 0.7
v -1.5 1.3 0.6
v -1.5 1.3 0.5
v -1.5 1.3 0.3
v -1.5 1.3 0.0999999
v -1.5 1.3 -0.1
v -1.5 1.3 -0.3
v -1.5 1.3 -0.4
v -1.5 1.3 -0.5
v -1.5 1.3 -0.8
v -1.5 1.3 -0.9
v -1.5 1.3 -1.7
v -1.5 1.4 1.5
v -1.5 1.4 1.2
v -1.5 1.4 0.8
v -1.5 1.4 0.7
v -1.5 1.4 0.4
v -1.5 1.4 0.3
v -1.5 1.4 0.0999999
v -1.5 1.4 -1.19209e-007
v -1.5 1.4 -0.2
v -1.5 1.4 -0.3
v -1.5 1.4 -0.6
v -1.5 1.4 -0.7
v -1.5 1.4 -1.2
v -1.5 1.4 -1.3
v -1.5 1.4 -1.7
v -1.5 1.4 -1.8
v -1.5 1.5 1.5
v -1.5 1.5 0.6
v -1.5 1.5 0.5
v -1.5 1.5 0.4
v -1.5 1.5 0.3
v -1.5 1.5 0.0999999
v -1.5 1.5 -1.19209e-007
v -1.5 1.5 -0.1
v -1.5 1.5 -0.2
v -1.5 1.5 -0.4
v -1.5 1.5 -0.5
v -1.5 1.5 -0.6
v -1.5 1.5 -0.7
v -1.5 1.5 -0.8
v -1.5 1.5 -0.9
v -1.5 1.5 -1.2
v -1.5 1.5 -1.3
v -1.5 1.5 -1.5
v -1.5 1.5 -1.6
v -1.5 1.5 -1.8
v -1.5 1.6 0.6
v -1.5 1.6 -0.9
v -1.5 1.6 -1.5
v -1.5 1.6 -1.6
v -1.5 1.8 1.6
v -1.5 1.8 -1.9
v -0.4 0.6 1.7
v -0.4 0.6 1.6
v -0.4 0.9 1.7
v -0.4 0.9 1.6
v -0.4 1.1 1.6
v -0.4 1.2 1.6
v -0.4 1.2 1.5
v -0.4 1.3 1.7
v -0.4 1.3 1.6
v -0.4 1.3 1.5
v -0.4 1.4 1.6
v -0.4 1.4 1.5
v -0.3 1.3 1.7
v -0.3 1.3 1.6
v -0.3 1.4 1.7
v -0.3 1.4 1.6
v -0.2 0.5 1.7
v -0.2 0.5 1.6
v -0.2 0.6 1.7
v -0.2 0.6 1.6
v -0.1 0.3 1.7
v -0.1 0.3 1.6
v -0.1 0.5 1.7
v -0.1 0.5 1.6
v 0.1 0.2 1.7
v 0.1 0.2 1.6
v 0.1 0.3 1.7
v 0.1 0.3 1.6
v -1.3 1.2 1.6
v -1.3 1.2 1.5
v -1.3 1.2 -1.8
v -1.3 1.2 -1.9
v -1.3 1.3 1.5
v -1.3 1.3 -1.8
v -1.3 1.4 1.5
v -1.3 1.4 -1.8
v -1.3 1.5 1.5
v -1.3 1.5 -1.8
v -1.3 1.6 1.5
v -1.3 1.6 -1.8
v -1.3 1.7 1.6
v -1.3 1.7 1.5
v -1.3 1.7 -1.8
v -1.3 1.7 -1.9
v 0 1.3 1.7
v 0 1.3 1.6
v 0 1.4 1.7
v 0 1.4 1.6
v 0.1 0.7 1.7
v 0.1 0.7 1.6
v 0.1 1.1 1.6
v 0.1 1.2 1.6
v 0.1 1.2 1.5
v 0.1 1.3 1.7
v 0.1 1.3 1.6
v 0.1 1.3 1.5
v 0.1 1.4 1.6
v 0.1 1.4 1.5
v 0.2 0.6 1.7
v 0.2 0.6 1.6
v 0.2 0.7 1.7
v 0.2 0.7 1.6
v 0.3 0.4 1.7
v 0.3 0.4 1.6
v 0.3 0.6 1.7
v 0.3 0.6 1.6
v 0.4 0.2 1.7
v 0.4 0.2 1.6
v 0.4 0.4 1.7
v 0.4 0.4 1.6
v 1.3 1.2 1.5
v 1.3 1.2 -1.8
v 1.3 1.3 1.5
v 1.3 1.3 -1.8
v 1.3 1.4 1.5
v 1.3 1.4 -1.8
v 1.3 1.5 1.5
v 1.3 1.5 -1.8
v 1.3 1.6 1.5
v 1.3 1.6 -1.8
v 1.3 1.7 1.5
v 1.3 1.7 -1.8
v 1.4 1.1 1.6
v 1.4 1.1 -1.9
v 1.4 1.2 1.6
v 1.4 1.2 -1.9
v 1.4 1.7 1.6
v 1.4 1.7 -1.9
v 1.4 1.8 1.6
v 1.4 1.8 -1.9
v -0.4 0.6 1.7
v -0.4 0.9 1.7
v -0.4 1.3 1.7
v -0.3 1.3 1.7
v -0.3 1.4 1.7
v -0.2 0.5 1.7
v -0.2 0.6 1.7
v -0.2 0.8 1.7
v -0.2 0.9 1.7
v -0.1 0.3 1.7
v -0.1 0.5 1.7
v -0.1 0.8 1.7
v 0 1.3 1.7
v 0 1.4 1.7
v 0.1 0.2 1.7
v 0.1 0.3 1.7
v 0.1 0.7 1.7
v 0.1 1.3 1.7
v 0.2 0.3 1.7
v 0.2 0.4 1.7
v 0.2 0.6 1.7
v 0.2 0.7 1.7
v 0.3 0.4 1.7
v 0.3 0.6 1.7
v 0.4 0.2 1.7
v 0.4 0.4 1.7
v -1.5 1.1 1.6
v -1.5 1.8 1.6
v -1.3 1.2 1.6
v -1.3 1.7 1.6
v -0.4 1.1 1.6
v -0.4 1.2 1.6
v -0.4 1.3 1.6
v -0.4 1.4 1.6
v -0.3 1.3 1.6
v -0.3 1.4 1.6
v 0 1.3 1.6
v 0 1.4 1.6
v 0.1 1.1 1.6
v 0.1 1.2 1.6
v 0.1 1.3 1.6
v 0.1 1.4 1.6
v 1.4 1.1 1.6
v 1.4 1.2 1.6
v 1.4 1.7 1.6
v 1.4 1.8 1.6
v -1.3 1.2 1.5
v -1.3 1.3 1.5
v -1.3 1.4 1.5
v -1.3 1.5 1.5
v -1.3 1.6 1.5
v -1.3 1.7 1.5
v -0.4 1.2 1.5
v -0.4 1.3 1.5
v -0.4 1.4 1.5
v 0.1 1.2 1.5
v 0.1 1.3 1.5
v 0.1 1.4 1.5
v 1.3 1.2 1.5
v 1.3 1.3 1.5
v 1.3 1.4 1.5
v 1.3 1.5 1.5
v 1.3 1.6 1.5
v 1.3 1.7 1.5
v -0.4 0.6 1.6
v -0.4 0.9 1.6
v -0.4 1.1 1.6
v -0.2 0.5 1.6
v -0.2 0.6 1.6
v -0.2 0.8 1.6
v -0.2 0.9 1.6
v -0.1 0.3 1.6
v -0.1 0.5 1.6
v -0.1 0.8 1.6
v 0.1 0.2 1.6
v 0.1 0.3 1.6
v 0.1 0.7 1.6
v 0.1 1.1 1.6
v 0.2 0.3 1.6
v 0.2 0.4 1.6
v 0.2 0.6 1.6
v 0.2 0.7 1.6
v 0.3 0.4 1.6
v 0.3 0.6 1.6
v 0.4 0.2 1.6
v 0.4 0.4 1.6
v -1.3 1.2 -1.8
v -1.3 1.3 -1.8
v -1.3 1.4 -1.8
v -1.3 1.5 -1.8
v -1.3 1.6 -1.8
v -1.3 1.7 -1.8
v 1.3 1.2 -1.8
v 1.3 1.3 -1.8
v 1.3 1.4 -1.8
v 1.3 1.5 -1.8
v 1.3 1.6 -1.8
v 1.3 1.7 -1.8
v -1.5 1.1 -1.9
v -1.5 1.8 -1.9
v -1.3 1.2 -1.9
v -1.3 1.7 -1.9
v 1.4 1.1 -1.9
v 1.4 1.2 -1.9
v 1.4 1.7 -1.9
v 1.4 1.8 -1.9
v 0.1 0.2 1.7
v 0.4 0.2 1.7
v 0.1 0.2 1.6
v 0.4 0.2 1.6
v -0.1 0.3 1.7
v 0.1 0.3 1.7
v -0.1 0.3 1.6
v 0.1 0.3 1.6
v -0.2 0.5 1.7
v -0.1 0.5 1.7
v -0.2 0.5 1.6
v -0.1 0.5 1.6
v -0.4 0.6 1.7
v -0.2 0.6 1.7
v -0.4 0.6 1.6
v -0.2 0.6 1.6
v -1.5 1.1 1.6
v -0.4 1.1 1.6
v 0.1 1.1 1.6
v 1.4 1.1 1.6
v -1.5 1.1 -1.9
v 1.4 1.1 -1.9
v -1.3 1.7 1.6
v 1.4 1.7 1.6
v -1.3 1.7 1.5
v 1.3 1.7 1.5
v -1.3 1.7 -1.8
v 1.3 1.7 -1.8
v -1.3 1.7 -1.9
v 1.4 1.7 -1.9
v 0.3 0.4 1.7
v 0.4 0.4 1.7
v 0.3 0.4 1.6
v 0.4 0.4 1.6
v 0.2 0.6 1.7
v 0.3 0.6 1.7
v 0.2 0.6 1.6
v 0.3 0.6 1.6
v 0.1 0.7 1.7
v 0.2 0.7 1.7
v 0.1 0.7 1.6
v 0.2 0.7 1.6
v -1.3 1.2 1.6
v -0.4 1.2 1.6
v 0.1 1.2 1.6
v 1.4 1.2 1.6
v -1.3 1.2 1.5
v -0.4 1.2 1.5
v 0.1 1.2 1.5
v 1.3 1.2 1.5
v -1.3 1.2 -1.8
v 1.3 1.2 -1.8
v -1.3 1.2 -1.9
v 1.4 1.2 -1.9
v -0.4 1.3 1.7
v -0.3 1.3 1.7
v 0 1.3 1.7
v 0.1 1.3 1.7
v -0.4 1.3 1.6
v -0.3 1.3 1.6
v 0 1.3 1.6
v 0.1 1.3 1.6
v -0.3 1.4 1.7
v 0 1.4 1.7
v -0.4 1.4 1.6
v -0.3 1.4 1.6
v 0 1.4 1.6
v 0.1 1.4 1.6
v -0.4 1.4 1.5
v 0.1 1.4 1.5
v -1.5 1.8 1.6
v 1.4 1.8 1.6
v -1.3 1.8 1.4
v 1.2 1.8 1.4
v -0.6 1.8 1.3
v 0.5 1.8 1.3
v -0.8 1.8 1.2
v -0.6 1.8 1.2
v 0.5 1.8 1.2
v 0.6 1.8 1.2
v -0.9 1.8 1.1
v -0.8 1.8 1.1
v -0.1 1.8 1.1
v 0 1.8 1.1
v 0.6 1.8 1.1
v 0.8 1.8 1.1
v -1 1.8 1
v -0.9 1.8 1
v -0.2 1.8 1
v -0.1 1.8 1
v 0 1.8 1
v 0.1 1.8 1
v 0.8 1.8 1
v 0.9 1.8 1
v -1.1 1.8 0.8
v -1 1.8 0.8
v -0.3 1.8 0.8
v -0.2 1.8 0.8
v 0.9 1.8 0.8
v 1 1.8 0.8
v 0.1 1.8 0.7
v 0.2 1.8 0.7
v -1.2 1.8 0.6
v -1.1 1.8 0.6
v 1 1.8 0.6
v 1.1 1.8 0.6
v -0.4 1.8 0.5
v -0.3 1.8 0.5
v 0.2 1.8 0.5
v 0.3 1.8 0.5
v 0.3 1.8 0.4
v 0.4 1.8 0.4
v -0.6 1.8 0.3
v -0.4 1.8 0.3
v -0.3 1.8 0.3
v 0.2 1.8 0.3
v -0.4 1.8 0.2
v -0.3 1.8 0.2
v -0.2 1.8 0.2
v 0.1 1.8 0.2
v 0.2 1.8 0.2
v 0.3 1.8 0.2
v 0.4 1.8 0.2
v 0.6 1.8 0.2
v -0.9 1.8 0.0999999
v -0.6 1.8 0.0999999
v -0.5 1.8 0.0999999
v -0.4 1.8 0.0999999
v -0.3 1.8 0.0999999
v -0.2 1.8 0.0999999
v 0.1 1.8 0.0999999
v 0.2 1.8 0.0999999
v 0.3 1.8 0.0999999
v 0.4 1.8 0.0999999
v 0.6 1.8 0.0999999
v 0.8 1.8 0.0999999
v -1 1.8 -1.19209e-007
v -0.9 1.8 -1.19209e-007
v -0.3 1.8 -1.19209e-007
v 0.2 1.8 -1.19209e-007
v 0.8 1.8 -1.19209e-007
v 0.9 1.8 -1.19209e-007
v -0.3 1.8 -0.1
v -0.2 1.8 -0.1
v -1 1.8 -0.2
v -0.9 1.8 -0.2
v -0.3 1.8 -0.2
v -0.2 1.8 -0.2
v -0.1 1.8 -0.2
v 0 1.8 -0.2
v 0.1 1.8 -0.2
v 0.3 1.8 -0.2
v 0.8 1.8 -0.2
v 0.9 1.8 -0.2
v -0.9 1.8 -0.3
v -0.7 1.8 -0.3
v -0.4 1.8 -0.3
v -0.2 1.8 -0.3
v -0.1 1.8 -0.3
v 0 1.8 -0.3
v 0.2 1.8 -0.3
v 0.3 1.8 -0.3
v 0.7 1.8 -0.3
v 0.8 1.8 -0.3
v -0.7 1.8 -0.4
v -0.5 1.8 -0.4
v -0.4 1.8 -0.4
v -0.3 1.8 -0.4
v -0.2 1.8 -0.4
v -0.1 1.8 -0.4
v 0 1.8 -0.4
v 0.1 1.8 -0.4
v 0.2 1.8 -0.4
v 0.3 1.8 -0.4
v 0.4 1.8 -0.4
v 0.6 1.8 -0.4
v 0.7 1.8 -0.4
v -0.4 1.8 -0.5
v -0.3 1.8 -0.5
v -0.1 1.8 -0.5
v 0 1.8 -0.5
v 0.1 1.8 -0.5
v 0.2 1.8 -0.5
v 0.3 1.8 -0.5
v 0.4 1.8 -0.5
v 0.6 1.8 -0.5
v -0.3 1.8 -0.6
v 0.2 1.8 -0.6
v -0.5 1.8 -0.7
v -0.3 1.8 -0.7
v 0.3 1.8 -0.7
v 0.4 1.8 -0.7
v -1.2 1.8 -0.9
v -1.1 1.8 -0.9
v 1 1.8 -0.9
v 1.1 1.8 -0.9
v -0.3 1.8 -1
v -0.2 1.8 -1
v 0.2 1.8 -1
v 0.3 1.8 -1
v -1.1 1.8 -1.1
v -1 1.8 -1.1
v -0.2 1.8 -1.2
v -0.1 1.8 -1.2
v 0.1 1.8 -1.2
v 0.2 1.8 -1.2
v 0.9 1.8 -1.2
v 1 1.8 -1.2
v -1 1.8 -1.3
v -0.9 1.8 -1.3
v 0 1.8 -1.3
v 0.1 1.8 -1.3
v 0.8 1.8 -1.3
v 0.9 1.8 -1.3
v -0.9 1.8 -1.4
v -0.8 1.8 -1.4
v -0.1 1.8 -1.4
v 0 1.8 -1.4
v 0.7 1.8 -1.4
v 0.8 1.8 -1.4
v -0.8 1.8 -1.5
v -0.5 1.8 -1.5
v 0.4 1.8 -1.5
v 0.7 1.8 -1.5
v -0.5 1.8 -1.6
v 0.4 1.8 -1.6
v -1.3 1.8 -1.7
v 1.2 1.8 -1.7
v -1.5 1.8 -1.9
v 1.4 1.8 -1.9

# faces
f 3/3/1 2/3/1 1/3/1
f 4/3/1 2/3/1 3/3/1
f 5/3/1 3/3/1 1/3/1
f 6/3/1 3/3/1 5/3/1
f 7/3/1 3/3/1 6/3/1
f 8/1/1 4/1/1 3/1/1
f 8/3/1 3/3/1 7/3/1
f 9/1/1 4/1/1 8/1/1
f 10/1/1 4/1/1 9/1/1
f 11/1/1 4/1/1 10/1/1
f 12/1/1 4/1/1 11/1/1
f 13/1/1 4/1/1 12/1/1
f 14/1/1 4/1/1 13/1/1
f 15/1/1 4/1/1 14/1/1
f 16/1/1 4/1/1 15/1/1
f 17/3/1 2/3/1 4/3/1
f 17/1/1 4/1/1 16/1/1
f 18/3/1 2/3/1 17/3/1
f 19/3/1 5/3/1 1/3/1
f 20/1/1 6/1/1 5/1/1
f 20/3/1 5/3/1 19/3/1
f 21/3/1 7/3/1 6/3/1
f 21/1/1 6/1/1 20/1/1
f 22/1/1 8/1/1 7/1/1
f 22/3/1 7/3/1 21/3/1
f 22/1/1 9/1/1 8/1/1
f 23/6/1 10/6/1 9/6/1
f 24/1/1 11/1/1 10/1/1
f 24/6/1 10/6/1 23/6/1
f 25/6/1 12/6/1 11/6/1
f 25/1/1 11/1/1 24/1/1
f 26/6/1 12/6/1 25/6/1
f 27/1/1 13/1/1 12/1/1
f 28/6/1 14/6/1 13/6/1
f 28/1/1 13/1/1 27/1/1
f 29/6/1 16/6/1 15/6/1
f 30/6/1 16/6/1 29/6/1
f 31/1/1 18/1/1 17/1/1
f 31/1/1 17/1/1 16/1/1
f 32/1/1 18/1/1 31/1/1
f 33/3/1 2/3/1 18/3/1
f 33/1/1 18/1/1 32/1/1
f 34/3/1 2/3/1 33/3/1
f 35/1/1 20/1/1 19/1/1
f 35/3/1 19/3/1 1/3/1
f 35/1/1 21/1/1 20/1/1
f 35/1/1 22/1/1 21/1/1
f 36/1/1 9/1/1 22/1/1
f 36/1/1 22/1/1 35/1/1
f 37/6/1 23/6/1 9/6/1
f 37/1/1 9/1/1 36/1/1
f 38/1/1 24/1/1 23/1/1
f 38/6/1 23/6/1 37/6/1
f 39/6/1 25/6/1 24/6/1
f 39/1/1 24/1/1 38/1/1
f 40/1/1 26/1/1 25/1/1
f 40/6/1 25/6/1 39/6/1
f 41/6/1 12/6/1 26/6/1
f 41/1/1 26/1/1 40/1/1
f 42/1/1 27/1/1 12/1/1
f 42/6/1 12/6/1 41/6/1
f 43/6/1 28/6/1 27/6/1
f 43/1/1 27/1/1 42/1/1
f 44/6/1 14/6/1 28/6/1
f 44/6/1 28/6/1 43/6/1
f 44/1/1 15/1/1 14/1/1
f 45/6/1 29/6/1 15/6/1
f 45/1/1 15/1/1 44/1/1
f 46/1/1 30/1/1 29/1/1
f 46/6/1 29/6/1 45/6/1
f 47/6/1 16/6/1 30/6/1
f 47/1/1 30/1/1 46/1/1
f 48/1/1 31/1/1 16/1/1
f 48/6/1 16/6/1 47/6/1
f 49/1/1 31/1/1 48/1/1
f 50/3/1 32/3/1 31/3/1
f 50/1/1 31/1/1 49/1/1
f 51/1/1 34/1/1 33/1/1
f 51/3/1 32/3/1 50/3/1
f 51/1/1 33/1/1 32/1/1
f 52/1/1 34/1/1 51/1/1
f 53/1/1 34/1/1 52/1/1
f 54/3/1 2/3/1 34/3/1
f 54/1/1 34/1/1 53/1/1
f 55/1/1 43/1/1 42/1/1
f 55/1/1 49/1/1 48/1/1
f 55/1/1 48/1/1 47/1/1
f 55/1/1 46/1/1 45/1/1
f 55/3/1 36/3/1 35/3/1
f 55/1/1 42/1/1 41/1/1
f 55/1/1 39/1/1 38/1/1
f 55/1/1 38/1/1 37/1/1
f 55/1/1 47/1/1 46/1/1
f 55/1/1 45/1/1 44/1/1
f 55/1/1 44/1/1 43/1/1
f 55/1/1 41/1/1 40/1/1
f 55/1/1 40/1/1 39/1/1
f 55/1/1 37/1/1 36/1/1
f 56/3/1 50/3/1 49/3/1
f 56/1/1 49/1/1 55/1/1
f 56/3/1 52/3/1 51/3/1
f 56/3/1 51/3/1 50/3/1
f 57/1/1 53/1/1 52/1/1
f 57/3/1 52/3/1 56/3/1
f 58/3/1 54/3/1 53/3/1
f 58/1/1 53/1/1 57/1/1
f 59/3/1 56/3/1 55/3/1
f 59/3/1 57/3/1 56/3/1
f 59/3/1 58/3/1 57/3/1
f 59/3/1 35/3/1 1/3/1
f 59/3/1 55/3/1 35/3/1
f 60/3/1 2/3/1 54/3/1
f 60/3/1 58/3/1 59/3/1
f 60/3/1 54/3/1 58/3/1
f 63/4/1 62/4/1 61/4/1
f 64/4/1 62/4/1 63/4/1
f 65/5/1 64/5/1 63/5/1
f 66/5/1 65/5/1 63/5/1
f 68/5/1 66/5/1 63/5/1
f 68/5/1 67/5/1 66/5/1
f 69/5/1 67/5/1 68/5/1
f 70/5/1 67/5/1 69/5/1
f 71/5/1 70/5/1 69/5/1
f 72/5/1 70/5/1 71/5/1
f 75/5/1 74/5/1 73/5/1
f 76/5/1 74/5/1 75/5/1
f 79/4/1 78/4/1 77/4/1
f 80/4/1 78/4/1 79/4/1
f 83/5/1 82/5/1 81/5/1
f 84/5/1 82/5/1 83/5/1
f 87/4/1 86/4/1 85/4/1
f 88/4/1 86/4/1 87/4/1
f 89/3/2 90/3/2 93/3/2
f 91/3/2 92/3/2 94/3/2
f 89/3/2 93/3/2 95/3/2
f 94/3/2 92/3/2 96/3/2
f 89/3/2 95/3/2 97/3/2
f 96/3/2 92/3/2 98/3/2
f 89/3/2 97/3/2 99/3/2
f 98/3/2 92/3/2 100/3/2
f 89/3/2 99/3/2 101/3/2
f 101/3/2 99/3/2 102/3/2
f 100/3/2 92/3/2 103/3/2
f 103/3/2 92/3/2 104/3/2
f 105/5/2 106/5/2 107/5/2
f 107/5/2 106/5/2 108/5/2
f 109/5/2 110/5/2 111/5/2
f 109/5/2 111/5/2 112/5/2
f 109/5/2 112/5/2 114/5/2
f 112/5/2 113/5/2 114/5/2
f 114/5/2 113/5/2 115/5/2
f 115/5/2 113/5/2 116/5/2
f 115/5/2 116/5/2 117/5/2
f 117/5/2 116/5/2 118/5/2
f 119/5/2 120/5/2 121/5/2
f 121/5/2 120/5/2 122/5/2
f 123/5/2 124/5/2 125/5/2
f 125/5/2 124/5/2 126/5/2
f 127/4/2 128/4/2 129/4/2
f 129/4/2 128/4/2 130/4/2
f 131/1/2 132/1/2 133/1/2
f 133/1/2 132/1/2 134/1/2
f 133/2/2 134/2/2 135/2/2
f 135/2/2 134/2/2 136/2/2
f 135/1/2 136/1/2 137/1/2
f 137/1/2 136/1/2 138/1/2
f 137/2/2 138/2/2 139/2/2
f 139/2/2 138/2/2 140/2/2
f 139/1/2 140/1/2 141/1/2
f 141/1/2 140/1/2 142/1/2
f 143/3/2 144/3/2 145/3/2
f 145/3/2 144/3/2 146/3/2
f 147/3/2 148/3/2 149/3/2
f 149/3/2 148/3/2 150/3/2
f 154/5/3 153/5/3 152/5/3
f 157/4/3 152/4/3 151/4/3
f 158/4/3 152/4/3 157/4/3
f 159/5/3 155/5/3 154/5/3
f 159/4/3 152/4/3 158/4/3
f 159/5/3 154/5/3 152/5/3
f 161/4/3 158/4/3 157/4/3
f 161/4/3 157/4/3 156/4/3
f 162/5/3 159/5/3 158/5/3
f 162/4/3 158/4/3 161/4/3
f 163/5/3 155/5/3 159/5/3
f 163/5/3 159/5/3 162/5/3
f 163/5/3 162/5/3 161/5/3
f 163/5/3 161/5/3 160/5/3
f 164/5/3 155/5/3 163/5/3
f 166/5/3 163/5/3 160/5/3
f 167/5/3 163/5/3 166/5/3
f 168/5/3 163/5/3 167/5/3
f 169/4/3 166/4/3 165/4/3
f 169/5/3 167/5/3 166/5/3
f 170/5/3 167/5/3 169/5/3
f 171/5/3 167/5/3 170/5/3
f 172/5/3 167/5/3 171/5/3
f 173/4/3 170/4/3 169/4/3
f 173/5/3 171/5/3 170/5/3
f 174/5/3 171/5/3 173/5/3
f 175/4/3 169/4/3 165/4/3
f 175/4/3 173/4/3 169/4/3
f 176/4/3 173/4/3 175/4/3
f 179/3/3 178/3/3 177/3/3
f 180/3/3 178/3/3 179/3/3
f 181/3/3 179/3/3 177/3/3
f 182/3/3 179/3/3 181/3/3
f 185/5/3 184/5/3 183/5/3
f 186/5/3 184/5/3 185/5/3
f 191/5/3 188/5/3 187/5/3
f 192/5/3 188/5/3 191/5/3
f 193/3/3 190/3/3 189/3/3
f 194/3/3 190/3/3 193/3/3
f 195/3/3 178/3/3 180/3/3
f 196/3/3 178/3/3 195/3/3
f 203/1/3 198/1/3 197/1/3
f 204/2/3 199/2/3 198/2/3
f 204/1/3 198/1/3 203/1/3
f 205/1/3 200/1/3 199/1/3
f 205/2/3 199/2/3 204/2/3
f 208/1/3 200/1/3 205/1/3
f 209/1/3 207/1/3 206/1/3
f 210/2/3 208/2/3 207/2/3
f 210/1/3 207/1/3 209/1/3
f 211/1/3 200/1/3 208/1/3
f 211/2/3 208/2/3 210/2/3
f 212/2/3 201/2/3 200/2/3
f 212/1/3 200/1/3 211/1/3
f 213/1/3 202/1/3 201/1/3
f 213/2/3 201/2/3 212/2/3
f 214/1/3 202/1/3 213/1/3
f 215/4/4 216/4/4 219/4/4
f 219/4/4 216/4/4 220/4/4
f 216/5/4 217/5/4 221/5/4
f 220/4/4 216/4/4 221/4/4
f 219/4/4 220/4/4 223/4/4
f 218/4/4 219/4/4 223/4/4
f 220/5/4 221/5/4 224/5/4
f 223/4/4 220/4/4 224/4/4
f 222/5/4 223/5/4 226/5/4
f 223/5/4 224/5/4 226/5/4
f 226/5/4 224/5/4 227/5/4
f 221/5/4 217/5/4 228/5/4
f 227/5/4 224/5/4 228/5/4
f 224/5/4 221/5/4 228/5/4
f 226/5/4 227/5/4 229/5/4
f 225/4/4 226/4/4 229/4/4
f 229/5/4 227/5/4 230/5/4
f 230/5/4 227/5/4 231/5/4
f 231/5/4 227/5/4 232/5/4
f 229/4/4 230/4/4 233/4/4
f 230/5/4 231/5/4 233/5/4
f 233/5/4 231/5/4 234/5/4
f 225/4/4 229/4/4 235/4/4
f 229/4/4 233/4/4 235/4/4
f 235/4/4 233/4/4 236/4/4
f 237/1/4 238/1/4 243/1/4
f 238/2/4 239/2/4 244/2/4
f 243/1/4 238/1/4 244/1/4
f 239/1/4 240/1/4 245/1/4
f 244/2/4 239/2/4 245/2/4
f 240/2/4 241/2/4 246/2/4
f 245/1/4 240/1/4 246/1/4
f 241/1/4 242/1/4 247/1/4
f 246/2/4 241/2/4 247/2/4
f 247/1/4 242/1/4 248/1/4
f 249/3/4 250/3/4 251/3/4
f 251/3/4 250/3/4 252/3/4
f 249/3/4 251/3/4 253/3/4
f 253/3/4 251/3/4 254/3/4
f 252/3/4 250/3/4 255/3/4
f 255/3/4 250/3/4 256/3/4
f 259/4/5 258/4/5 257/4/5
f 260/4/5 258/4/5 259/4/5
f 263/5/5 262/5/5 261/5/5
f 264/5/5 262/5/5 263/5/5
f 267/4/5 266/4/5 265/4/5
f 268/4/5 266/4/5 267/4/5
f 271/4/5 270/4/5 269/4/5
f 272/4/5 270/4/5 271/4/5
f 277/3/5 274/3/5 273/3/5
f 277/3/5 276/3/5 275/3/5
f 277/3/5 275/3/5 274/3/5
f 278/3/5 276/3/5 277/3/5
f 281/3/5 280/3/5 279/3/5
f 282/3/5 280/3/5 281/3/5
f 284/3/5 280/3/5 282/3/5
f 285/3/5 284/3/5 283/3/5
f 286/3/5 280/3/5 284/3/5
f 286/3/5 284/3/5 285/3/5
f 287/4/6 288/4/6 289/4/6
f 289/4/6 288/4/6 290/4/6
f 291/5/6 292/5/6 293/5/6
f 293/5/6 292/5/6 294/5/6
f 295/5/6 296/5/6 297/5/6
f 297/5/6 296/5/6 298/5/6
f 299/3/6 300/3/6 303/3/6
f 303/3/6 300/3/6 304/3/6
f 301/3/6 302/3/6 305/3/6
f 305/3/6 302/3/6 306/3/6
f 306/3/6 302/3/6 308/3/6
f 307/3/6 308/3/6 309/3/6
f 308/3/6 302/3/6 310/3/6
f 309/3/6 308/3/6 310/3/6
f 311/5/6 312/5/6 315/5/6
f 315/5/6 312/5/6 316/5/6
f 313/5/6 314/5/6 317/5/6
f 317/5/6 314/5/6 318/5/6
f 319/5/6 320/5/6 322/5/6
f 322/5/6 320/5/6 323/5/6
f 321/5/6 322/5/6 325/5/6
f 323/5/6 324/5/6 325/5/6
f 322/5/6 323/5/6 325/5/6
f 325/5/6 324/5/6 326/5/6
f 327/3/6 328/3/6 329/3/6
f 329/3/6 328/3/6 330/3/6
f 329/1/6 330/1/6 331/1/6
f 331/1/6 330/1/6 332/1/6
f 329/1/6 331/1/6 333/1/6
f 331/3/6 332/3/6 334/3/6
f 333/1/6 331/1/6 334/1/6
f 332/1/6 330/1/6 335/1/6
f 334/3/6 332/3/6 335/3/6
f 335/1/6 330/1/6 336/1/6
f 329/1/6 333/1/6 337/1/6
f 333/3/6 334/3/6 338/3/6
f 337/1/6 333/1/6 338/1/6
f 334/3/6 335/3/6 338/3/6
f 335/3/6 336/3/6 338/3/6
f 338/3/6 336/3/6 339/3/6
f 339/3/6 336/3/6 340/3/6
f 336/1/6 330/1/6 341/1/6
f 340/3/6 336/3/6 341/3/6
f 341/1/6 330/1/6 342/1/6
f 329/1/6 337/1/6 343/1/6
f 337/3/6 338/3/6 344/3/6
f 343/1/6 337/1/6 344/1/6
f 338/3/6 339/3/6 344/3/6
f 344/3/6 339/3/6 345/3/6
f 339/1/6 340/1/6 346/1/6
f 345/3/6 339/3/6 346/3/6
f 341/3/6 342/3/6 347/3/6
f 346/1/6 340/1/6 347/1/6
f 340/3/6 341/3/6 347/3/6
f 347/3/6 342/3/6 348/3/6
f 342/1/6 330/1/6 349/1/6
f 348/3/6 342/3/6 349/3/6
f 349/1/6 330/1/6 350/1/6
f 329/1/6 343/1/6 351/1/6
f 344/3/6 345/3/6 352/3/6
f 351/1/6 343/1/6 352/1/6
f 343/3/6 344/3/6 352/3/6
f 352/3/6 345/3/6 353/3/6
f 347/1/6 348/1/6 354/1/6
f 353/3/6 345/3/6 354/3/6
f 345/1/6 346/1/6 354/1/6
f 346/1/6 347/1/6 354/1/6
f 350/1/6 330/1/6 355/1/6
f 349/3/6 350/3/6 355/3/6
f 348/3/6 349/3/6 355/3/6
f 355/1/6 330/1/6 356/1/6
f 354/1/6 348/1/6 357/1/6
f 353/1/6 354/1/6 357/1/6
f 355/3/6 356/3/6 357/3/6
f 348/3/6 355/3/6 357/3/6
f 357/3/6 356/3/6 358/3/6
f 329/1/6 351/1/6 359/1/6
f 352/3/6 353/3/6 360/3/6
f 359/1/6 351/1/6 360/1/6
f 351/3/6 352/3/6 360/3/6
f 358/3/6 356/3/6 361/3/6
f 356/1/6 330/1/6 361/1/6
f 361/1/6 330/1/6 362/1/6
f 360/3/6 353/3/6 363/3/6
f 359/3/6 360/3/6 363/3/6
f 357/1/6 358/1/6 364/1/6
f 363/3/6 353/3/6 364/3/6
f 353/1/6 357/1/6 364/1/6
f 361/3/6 362/3/6 365/3/6
f 364/1/6 358/1/6 365/1/6
f 358/3/6 361/3/6 365/3/6
f 365/3/6 362/3/6 366/3/6
f 363/1/6 364/1/6 367/1/6
f 366/3/6 362/3/6 367/3/6
f 365/1/6 366/1/6 367/1/6
f 364/1/6 365/1/6 367/1/6
f 367/3/6 362/3/6 368/3/6
f 359/3/6 363/3/6 369/3/6
f 363/1/6 367/1/6 370/1/6
f 369/3/6 363/3/6 370/3/6
f 367/1/6 368/1/6 370/1/6
f 370/1/6 368/1/6 371/1/6
f 371/1/6 368/1/6 372/1/6
f 369/1/6 370/1/6 373/1/6
f 370/1/6 371/1/6 373/1/6
f 371/6/6 372/6/6 374/6/6
f 373/1/6 371/1/6 374/1/6
f 374/6/6 372/6/6 375/6/6
f 375/6/6 372/6/6 376/6/6
f 372/1/6 368/1/6 377/1/6
f 376/6/6 372/6/6 377/6/6
f 377/1/6 368/1/6 378/1/6
f 368/3/6 362/3/6 379/3/6
f 378/1/6 368/1/6 379/1/6
f 379/3/6 362/3/6 380/3/6
f 359/3/6 369/3/6 381/3/6
f 369/1/6 373/1/6 382/1/6
f 381/3/6 369/3/6 382/3/6
f 382/1/6 373/1/6 383/1/6
f 373/6/6 374/6/6 384/6/6
f 383/1/6 373/1/6 384/1/6
f 374/6/6 375/6/6 384/6/6
f 384/6/6 375/6/6 385/6/6
f 375/1/6 376/1/6 386/1/6
f 385/6/6 375/6/6 386/6/6
f 377/6/6 378/6/6 387/6/6
f 386/1/6 376/1/6 387/1/6
f 376/6/6 377/6/6 387/6/6
f 387/6/6 378/6/6 388/6/6
f 378/1/6 379/1/6 389/1/6
f 388/6/6 378/6/6 389/6/6
f 379/1/6 380/1/6 389/1/6
f 389/1/6 380/1/6 390/1/6
f 380/3/6 362/3/6 391/3/6
f 390/1/6 380/1/6 391/1/6
f 391/3/6 362/3/6 392/3/6
f 359/3/6 381/3/6 393/3/6
f 382/1/6 383/1/6 394/1/6
f 393/3/6 381/3/6 394/3/6
f 381/1/6 382/1/6 394/1/6
f 385/1/6 386/1/6 395/1/6
f 384/6/6 385/6/6 395/6/6
f 383/6/6 384/6/6 395/6/6
f 387/1/6 388/1/6 395/1/6
f 386/1/6 387/1/6 395/1/6
f 389/6/6 390/6/6 396/6/6
f 395/1/6 388/1/6 396/1/6
f 388/6/6 389/6/6 396/6/6
f 392/3/6 362/3/6 397/3/6
f 391/1/6 392/1/6 397/1/6
f 390/1/6 391/1/6 397/1/6
f 397/3/6 362/3/6 398/3/6
f 383/6/6 395/6/6 399/6/6
f 395/6/6 396/6/6 399/6/6
f 399/6/6 396/6/6 400/6/6
f 393/1/6 394/1/6 401/1/6
f 359/3/6 393/3/6 401/3/6
f 394/1/6 383/1/6 402/1/6
f 401/1/6 394/1/6 402/1/6
f 399/1/6 400/1/6 403/1/6
f 383/6/6 399/6/6 403/6/6
f 400/6/6 396/6/6 404/6/6
f 403/1/6 400/1/6 404/1/6
f 404/6/6 396/6/6 405/6/6
f 405/6/6 396/6/6 406/6/6
f 406/6/6 396/6/6 407/6/6
f 396/6/6 390/6/6 408/6/6
f 407/6/6 396/6/6 408/6/6
f 397/1/6 398/1/6 409/1/6
f 390/1/6 397/1/6 409/1/6
f 398/3/6 362/3/6 410/3/6
f 409/1/6 398/1/6 410/1/6
f 402/1/6 383/1/6 411/1/6
f 401/3/6 402/3/6 411/3/6
f 411/1/6 383/1/6 412/1/6
f 383/6/6 403/6/6 413/6/6
f 403/6/6 404/6/6 413/6/6
f 404/6/6 405/6/6 413/6/6
f 413/6/6 405/6/6 414/6/6
f 405/1/6 406/1/6 415/1/6
f 414/6/6 405/6/6 415/6/6
f 406/6/6 407/6/6 416/6/6
f 415/1/6 406/1/6 416/1/6
f 407/1/6 408/1/6 417/1/6
f 408/6/6 390/6/6 418/6/6
f 417/1/6 408/1/6 418/1/6
f 390/1/6 409/1/6 419/1/6
f 409/3/6 410/3/6 420/3/6
f 419/1/6 409/1/6 420/1/6
f 412/1/6 383/1/6 421/1/6
f 411/3/6 412/3/6 421/3/6
f 383/6/6 413/6/6 422/6/6
f 421/1/6 383/1/6 422/1/6
f 413/1/6 414/1/6 423/1/6
f 422/6/6 413/6/6 423/6/6
f 423/1/6 414/1/6 424/1/6
f 414/6/6 415/6/6 425/6/6
f 424/1/6 414/1/6 425/1/6
f 415/6/6 416/6/6 425/6/6
f 425/6/6 416/6/6 426/6/6
f 416/6/6 407/6/6 427/6/6
f 426/6/6 416/6/6 427/6/6
f 407/1/6 417/1/6 428/1/6
f 427/6/6 407/6/6 428/6/6
f 417/6/6 418/6/6 429/6/6
f 428/1/6 417/1/6 429/1/6
f 418/6/6 390/6/6 430/6/6
f 429/6/6 418/6/6 430/6/6
f 390/1/6 419/1/6 431/1/6
f 430/6/6 390/6/6 431/6/6
f 431/1/6 419/1/6 432/1/6
f 419/3/6 420/3/6 433/3/6
f 432/1/6 419/1/6 433/1/6
f 423/6/6 424/6/6 434/6/6
f 422/1/6 423/1/6 434/1/6
f 425/1/6 426/1/6 435/1/6
f 434/6/6 424/6/6 435/6/6
f 424/1/6 425/1/6 435/1/6
f 426/6/6 427/6/6 436/6/6
f 435/1/6 426/1/6 436/1/6
f 427/1/6 428/1/6 437/1/6
f 436/6/6 427/6/6 437/6/6
f 428/6/6 429/6/6 438/6/6
f 437/1/6 428/1/6 438/1/6
f 429/6/6 430/6/6 438/6/6
f 438/6/6 430/6/6 439/6/6
f 430/1/6 431/1/6 440/1/6
f 439/6/6 430/6/6 440/6/6
f 431/1/6 432/1/6 440/1/6
f 440/1/6 432/1/6 441/1/6
f 432/3/6 433/3/6 442/3/6
f 441/1/6 432/1/6 442/1/6
f 436/6/6 437/6/6 443/6/6
f 434/1/6 435/1/6 443/1/6
f 438/6/6 439/6/6 443/6/6
f 437/6/6 438/6/6 443/6/6
f 435/6/6 436/6/6 443/6/6
f 439/1/6 440/1/6 444/1/6
f 443/6/6 439/6/6 444/6/6
f 440/1/6 441/1/6 444/1/6
f 422/1/6 434/1/6 445/1/6
f 434/1/6 443/1/6 445/1/6
f 443/1/6 444/1/6 445/1/6
f 421/3/6 422/3/6 445/3/6
f 445/1/6 444/1/6 446/1/6
f 444/1/6 441/1/6 447/1/6
f 446/1/6 444/1/6 447/1/6
f 441/3/6 442/3/6 448/3/6
f 447/1/6 441/1/6 448/1/6
f 329/1/6 359/1/6 449/1/6
f 359/3/6 401/3/6 449/3/6
f 445/3/6 446/3/6 449/3/6
f 421/3/6 445/3/6 449/3/6
f 411/3/6 421/3/6 449/3/6
f 401/3/6 411/3/6 449/3/6
f 449/3/6 446/3/6 450/3/6
f 448/3/6 442/3/6 451/3/6
f 447/3/6 448/3/6 451/3/6
f 442/3/6 433/3/6 451/3/6
f 420/3/6 410/3/6 451/3/6
f 433/3/6 420/3/6 451/3/6
f 410/3/6 362/3/6 451/3/6
f 362/1/6 330/1/6 452/1/6
f 451/3/6 362/3/6 452/3/6
f 450/3/6 446/3/6 453/3/6
f 446/1/6 447/1/6 453/1/6
f 453/1/6 447/1/6 454/1/6
f 454/1/6 447/1/6 455/1/6
f 447/3/6 451/3/6 456/3/6
f 455/1/6 447/1/6 456/1/6
f 449/1/6 450/1/6 457/1/6
f 450/3/6 453/3/6 457/3/6
f 453/3/6 454/3/6 457/3/6
f 457/3/6 454/3/6 458/3/6
f 454/1/6 455/1/6 459/1/6
f 458/3/6 454/3/6 459/3/6
f 459/1/6 455/1/6 460/1/6
f 460/1/6 455/1/6 461/1/6
f 455/3/6 456/3/6 462/3/6
f 461/1/6 455/1/6 462/1/6
f 456/3/6 451/3/6 463/3/6
f 462/3/6 456/3/6 463/3/6
f 451/1/6 452/1/6 464/1/6
f 463/3/6 451/3/6 464/3/6
f 457/1/6 458/1/6 465/1/6
f 458/3/6 459/3/6 465/3/6
f 459/3/6 460/3/6 465/3/6
f 465/3/6 460/3/6 466/3/6
f 460/1/6 461/1/6 467/1/6
f 461/3/6 462/3/6 468/3/6
f 467/1/6 461/1/6 468/1/6
f 462/3/6 463/3/6 468/3/6
f 468/3/6 463/3/6 469/3/6
f 463/1/6 464/1/6 470/1/6
f 469/3/6 463/3/6 470/3/6
f 465/1/6 466/1/6 471/1/6
f 466/3/6 460/3/6 471/3/6
f 471/3/6 460/3/6 472/3/6
f 460/1/6 467/1/6 473/1/6
f 472/3/6 460/3/6 473/3/6
f 468/3/6 469/3/6 474/3/6
f 473/1/6 467/1/6 474/1/6
f 467/3/6 468/3/6 474/3/6
f 474/3/6 469/3/6 475/3/6
f 469/1/6 470/1/6 476/1/6
f 475/3/6 469/3/6 476/3/6
f 471/1/6 472/1/6 477/1/6
f 474/3/6 475/3/6 477/3/6
f 472/3/6 473/3/6 477/3/6
f 473/3/6 474/3/6 477/3/6
f 477/3/6 475/3/6 478/3/6
f 478/3/6 475/3/6 479/3/6
f 475/1/6 476/1/6 480/1/6
f 479/3/6 475/3/6 480/3/6
f 478/3/6 479/3/6 481/3/6
f 477/1/6 478/1/6 481/1/6
f 479/1/6 480/1/6 482/1/6
f 481/3/6 479/3/6 482/3/6
f 327/3/6 329/3/6 483/3/6
f 329/1/6 449/1/6 483/1/6
f 481/1/6 482/1/6 483/1/6
f 477/1/6 481/1/6 483/1/6
f 471/1/6 477/1/6 483/1/6
f 457/1/6 465/1/6 483/1/6
f 465/1/6 471/1/6 483/1/6
f 449/1/6 457/1/6 483/1/6
f 482/1/6 480/1/6 484/1/6
f 483/1/6 482/1/6 484/1/6
f 330/3/6 328/3/6 484/3/6
f 470/1/6 464/1/6 484/1/6
f 480/1/6 476/1/6 484/1/6
f 476/1/6 470/1/6 484/1/6
f 464/1/6 452/1/6 484/1/6
f 452/1/6 330/1/6 484/1/6
f 327/3/6 483/3/6 485/3/6
f 483/3/6 484/3/6 485/3/6
f 484/3/6 328/3/6 486/3/6
f 485/3/6 484/3/6 486/3/6
