# MagicaVoxel @ Ephtracy

# group
o 

# material
mtllib painting 2.mtl
usemtl palette

# normals
vn -1 0 0
vn 1 0 0
vn 0 0 1
vn 0 0 -1
vn 0 -1 0
vn 0 1 0

# texcoords
vt 0.0175781 0.5
vt 0.685547 0.5
vt 0.912109 0.5
vt 0.923828 0.5
vt 0.951172 0.5
vt 0.970703 0.5
vt 0.982422 0.5
vt 0.986328 0.5
vt 0.990234 0.5

# verts
v -1.7 1.5 -1.1
v -1.7 1.5 -1.4
v -1.7 3.4 -1.1
v -1.7 3.4 -1.4
v 1.7 1.6 -1.1
v 1.7 1.6 -1.2
v 1.7 2.5 -1.2
v 1.7 3.3 -1.1
v 1.7 3.3 -1.2
v -1.6 1.6 -1.1
v -1.6 1.6 -1.2
v -1.6 2.1 -1.2
v -1.6 2.5 -1.2
v -1.6 3.3 -1.1
v -1.6 3.3 -1.2
v 1.8 1.5 -1.1
v 1.8 1.5 -1.4
v 1.8 3.4 -1.1
v 1.8 3.4 -1.4
v -1.7 1.5 -1.1
v -1.7 3.4 -1.1
v -1.6 1.6 -1.1
v -1.6 3.3 -1.1
v 1.7 1.6 -1.1
v 1.7 3.3 -1.1
v 1.8 1.5 -1.1
v 1.8 3.4 -1.1
v -1.6 1.6 -1.2
v -1.6 2.1 -1.2
v -1.6 2.5 -1.2
v -1.6 3.3 -1.2
v -1.5 2.1 -1.2
v -1.5 2.5 -1.2
v -1.5 2.7 -1.2
v -1.4 2 -1.2
v -1.4 2.1 -1.2
v -1.4 2.2 -1.2
v -1.4 2.7 -1.2
v -1.4 2.9 -1.2
v -1.3 1.9 -1.2
v -1.3 2 -1.2
v -1.3 2.1 -1.2
v -1.3 2.2 -1.2
v -1.3 2.4 -1.2
v -1.3 2.7 -1.2
v -1.3 2.9 -1.2
v -1.2 1.9 -1.2
v -1.2 2 -1.2
v -1.2 2.1 -1.2
v -1.2 2.2 -1.2
v -1.2 2.4 -1.2
v -1.2 2.5 -1.2
v -1.2 2.7 -1.2
v -1.1 1.9 -1.2
v -1.1 2 -1.2
v -1.1 2.1 -1.2
v -1.1 2.2 -1.2
v -1.1 2.5 -1.2
v -1.1 2.6 -1.2
v -1 2 -1.2
v -1 2.1 -1.2
v -1 2.2 -1.2
v -1 2.4 -1.2
v -1 2.6 -1.2
v -1 2.9 -1.2
v -0.9 1.9 -1.2
v -0.9 2 -1.2
v -0.9 2.1 -1.2
v -0.9 2.2 -1.2
v -0.9 2.4 -1.2
v -0.9 2.8 -1.2
v -0.9 2.9 -1.2
v -0.8 2 -1.2
v -0.8 2.1 -1.2
v -0.8 2.2 -1.2
v -0.8 2.5 -1.2
v -0.8 2.8 -1.2
v -0.7 2 -1.2
v -0.7 2.1 -1.2
v -0.7 2.5 -1.2
v -0.6 1.6 -1.2
v -0.6 2.1 -1.2
v -0.6 2.5 -1.2
v -0.6 2.6 -1.2
v -0.5 2.6 -1.2
v -0.5 2.8 -1.2
v -0.4 1.6 -1.2
v -0.4 1.8 -1.2
v -0.4 2.3 -1.2
v -0.4 2.5 -1.2
v -0.4 2.7 -1.2
v -0.4 2.8 -1.2
v -0.3 1.8 -1.2
v -0.3 2.1 -1.2
v -0.3 2.3 -1.2
v -0.3 2.5 -1.2
v -0.3 2.7 -1.2
v -0.2 1.8 -1.2
v -0.2 1.9 -1.2
v -0.2 2 -1.2
v -0.2 2.1 -1.2
v -0.2 2.5 -1.2
v -0.0999999 1.6 -1.2
v -0.0999999 1.8 -1.2
v -0.0999999 1.9 -1.2
v -0.0999999 2 -1.2
v -0.0999999 2.1 -1.2
v -0.0999999 2.5 -1.2
v -0.0999999 2.8 -1.2
v 1.19209e-007 2 -1.2
v 1.19209e-007 2.1 -1.2
v 1.19209e-007 2.8 -1.2
v 1.19209e-007 3 -1.2
v 0.1 1.8 -1.2
v 0.1 1.9 -1.2
v 0.1 2 -1.2
v 0.1 2.1 -1.2
v 0.1 2.3 -1.2
v 0.1 2.6 -1.2
v 0.1 2.8 -1.2
v 0.1 3 -1.2
v 0.1 3.1 -1.2
v 0.2 1.8 -1.2
v 0.2 1.9 -1.2
v 0.2 2 -1.2
v 0.2 2.1 -1.2
v 0.2 2.3 -1.2
v 0.2 2.5 -1.2
v 0.2 2.6 -1.2
v 0.2 2.8 -1.2
v 0.2 3.1 -1.2
v 0.3 1.8 -1.2
v 0.3 1.9 -1.2
v 0.3 2 -1.2
v 0.4 1.8 -1.2
v 0.4 1.9 -1.2
v 0.4 2 -1.2
v 0.5 1.8 -1.2
v 0.5 1.9 -1.2
v 0.5 2 -1.2
v 0.5 2.1 -1.2
v 0.5 2.3 -1.2
v 0.6 1.9 -1.2
v 0.6 2 -1.2
v 0.6 2.1 -1.2
v 0.6 2.3 -1.2
v 0.6 2.5 -1.2
v 0.6 2.6 -1.2
v 0.7 1.8 -1.2
v 0.7 1.9 -1.2
v 0.7 2 -1.2
v 0.7 2.1 -1.2
v 0.7 2.6 -1.2
v 0.7 2.7 -1.2
v 0.8 2.7 -1.2
v 0.8 3.1 -1.2
v 0.9 1.8 -1.2
v 0.9 1.9 -1.2
v 0.9 2.9 -1.2
v 0.9 3.1 -1.2
v 1 2 -1.2
v 1 2.1 -1.2
v 1 2.3 -1.2
v 1 2.5 -1.2
v 1 2.9 -1.2
v 1.1 2 -1.2
v 1.1 2.2 -1.2
v 1.1 2.3 -1.2
v 1.2 1.6 -1.2
v 1.2 2 -1.2
v 1.2 2.2 -1.2
v 1.2 2.3 -1.2
v 1.3 2.3 -1.2
v 1.3 2.5 -1.2
v 1.3 2.6 -1.2
v 1.4 1.6 -1.2
v 1.4 1.7 -1.2
v 1.4 1.8 -1.2
v 1.4 2.1 -1.2
v 1.4 2.2 -1.2
v 1.5 1.7 -1.2
v 1.5 1.8 -1.2
v 1.5 2 -1.2
v 1.5 2.1 -1.2
v 1.5 2.2 -1.2
v 1.5 2.5 -1.2
v 1.5 2.6 -1.2
v 1.6 1.8 -1.2
v 1.6 2 -1.2
v 1.6 2.3 -1.2
v 1.6 2.5 -1.2
v 1.7 1.6 -1.2
v 1.7 2.5 -1.2
v 1.7 3.3 -1.2
v -1.7 1.5 -1.4
v -1.7 3.4 -1.4
v 1.8 1.5 -1.4
v 1.8 3.4 -1.4
v -1.7 1.5 -1.1
v 1.8 1.5 -1.1
v -1.7 1.5 -1.4
v 1.8 1.5 -1.4
v -1.6 3.3 -1.1
v 1.7 3.3 -1.1
v -1.6 3.3 -1.2
v 1.7 3.3 -1.2
v -1.6 1.6 -1.1
v 1.7 1.6 -1.1
v -1.6 1.6 -1.2
v -0.6 1.6 -1.2
v -0.4 1.6 -1.2
v -0.0999999 1.6 -1.2
v 1.2 1.6 -1.2
v 1.4 1.6 -1.2
v 1.7 1.6 -1.2
v -1.7 3.4 -1.1
v 1.8 3.4 -1.1
v -1.7 3.4 -1.4
v 1.8 3.4 -1.4

# faces
f 3/5/1 2/5/1 1/5/1
f 4/5/1 2/5/1 3/5/1
f 7/5/1 6/5/1 5/5/1
f 8/5/1 7/5/1 5/5/1
f 9/5/1 7/5/1 8/5/1
f 10/5/2 11/5/2 12/5/2
f 10/5/2 12/5/2 13/5/2
f 10/5/2 13/5/2 14/5/2
f 14/5/2 13/5/2 15/5/2
f 16/5/2 17/5/2 18/5/2
f 18/5/2 17/5/2 19/5/2
f 22/5/3 21/5/3 20/5/3
f 23/5/3 21/5/3 22/5/3
f 24/5/3 22/5/3 20/5/3
f 25/5/3 21/5/3 23/5/3
f 26/5/3 24/5/3 20/5/3
f 26/5/3 25/5/3 24/5/3
f 27/5/3 21/5/3 25/5/3
f 27/5/3 25/5/3 26/5/3
f 32/7/3 29/7/3 28/7/3
f 32/4/3 30/4/3 29/4/3
f 33/2/3 31/2/3 30/2/3
f 33/4/3 30/4/3 32/4/3
f 34/2/3 31/2/3 33/2/3
f 35/7/3 32/7/3 28/7/3
f 35/7/3 33/7/3 32/7/3
f 35/7/3 34/7/3 33/7/3
f 36/7/3 34/7/3 35/7/3
f 37/7/3 34/7/3 36/7/3
f 38/2/3 31/2/3 34/2/3
f 38/7/3 34/7/3 37/7/3
f 39/2/3 31/2/3 38/2/3
f 40/7/3 35/7/3 28/7/3
f 41/9/3 36/9/3 35/9/3
f 41/7/3 35/7/3 40/7/3
f 42/1/3 37/1/3 36/1/3
f 42/9/3 36/9/3 41/9/3
f 43/7/3 38/7/3 37/7/3
f 43/1/3 37/1/3 42/1/3
f 43/7/3 39/7/3 38/7/3
f 44/7/3 39/7/3 43/7/3
f 45/7/3 39/7/3 44/7/3
f 46/2/3 31/2/3 39/2/3
f 46/7/3 39/7/3 45/7/3
f 47/9/3 41/9/3 40/9/3
f 47/7/3 40/7/3 28/7/3
f 48/7/3 42/7/3 41/7/3
f 48/9/3 41/9/3 47/9/3
f 49/1/3 43/1/3 42/1/3
f 49/7/3 42/7/3 48/7/3
f 50/9/3 44/9/3 43/9/3
f 50/1/3 43/1/3 49/1/3
f 51/7/3 45/7/3 44/7/3
f 51/9/3 44/9/3 50/9/3
f 52/7/3 45/7/3 51/7/3
f 53/2/3 46/2/3 45/2/3
f 53/7/3 45/7/3 52/7/3
f 54/7/3 47/7/3 28/7/3
f 54/7/3 48/7/3 47/7/3
f 55/9/3 49/9/3 48/9/3
f 55/7/3 48/7/3 54/7/3
f 56/7/3 50/7/3 49/7/3
f 56/9/3 49/9/3 55/9/3
f 57/8/3 52/8/3 51/8/3
f 57/7/3 50/7/3 56/7/3
f 57/8/3 51/8/3 50/8/3
f 58/2/3 53/2/3 52/2/3
f 58/8/3 52/8/3 57/8/3
f 59/2/3 53/2/3 58/2/3
f 60/9/3 55/9/3 54/9/3
f 60/7/3 56/7/3 55/7/3
f 61/8/3 59/8/3 58/8/3
f 61/7/3 56/7/3 60/7/3
f 61/8/3 57/8/3 56/8/3
f 61/8/3 58/8/3 57/8/3
f 62/8/3 59/8/3 61/8/3
f 63/8/3 59/8/3 62/8/3
f 64/2/3 53/2/3 59/2/3
f 64/8/3 59/8/3 63/8/3
f 65/2/3 31/2/3 46/2/3
f 65/2/3 53/2/3 64/2/3
f 65/2/3 46/2/3 53/2/3
f 66/9/3 60/9/3 54/9/3
f 66/7/3 54/7/3 28/7/3
f 67/8/3 61/8/3 60/8/3
f 67/9/3 60/9/3 66/9/3
f 68/1/3 62/1/3 61/1/3
f 68/8/3 61/8/3 67/8/3
f 69/9/3 63/9/3 62/9/3
f 69/1/3 62/1/3 68/1/3
f 70/8/3 64/8/3 63/8/3
f 70/9/3 63/9/3 69/9/3
f 70/8/3 65/8/3 64/8/3
f 71/8/3 65/8/3 70/8/3
f 72/2/3 31/2/3 65/2/3
f 72/8/3 65/8/3 71/8/3
f 73/9/3 68/9/3 67/9/3
f 73/7/3 67/7/3 66/7/3
f 74/1/3 69/1/3 68/1/3
f 74/9/3 68/9/3 73/9/3
f 75/8/3 71/8/3 70/8/3
f 75/1/3 69/1/3 74/1/3
f 75/8/3 70/8/3 69/8/3
f 76/8/3 71/8/3 75/8/3
f 77/2/3 72/2/3 71/2/3
f 77/8/3 71/8/3 76/8/3
f 78/7/3 73/7/3 66/7/3
f 78/8/3 74/8/3 73/8/3
f 78/8/3 76/8/3 75/8/3
f 78/8/3 75/8/3 74/8/3
f 79/8/3 76/8/3 78/8/3
f 80/2/3 77/2/3 76/2/3
f 80/8/3 76/8/3 79/8/3
f 81/7/3 79/7/3 78/7/3
f 81/7/3 66/7/3 28/7/3
f 81/7/3 78/7/3 66/7/3
f 82/4/3 80/4/3 79/4/3
f 82/7/3 79/7/3 81/7/3
f 83/2/3 77/2/3 80/2/3
f 83/4/3 80/4/3 82/4/3
f 84/2/3 77/2/3 83/2/3
f 85/7/3 84/7/3 83/7/3
f 85/2/3 77/2/3 84/2/3
f 86/2/3 72/2/3 77/2/3
f 86/2/3 77/2/3 85/2/3
f 87/8/3 82/8/3 81/8/3
f 87/8/3 83/8/3 82/8/3
f 88/8/3 83/8/3 87/8/3
f 89/8/3 83/8/3 88/8/3
f 90/7/3 85/7/3 83/7/3
f 90/8/3 83/8/3 89/8/3
f 90/7/3 86/7/3 85/7/3
f 91/7/3 86/7/3 90/7/3
f 92/2/3 72/2/3 86/2/3
f 92/7/3 86/7/3 91/7/3
f 93/8/3 89/8/3 88/8/3
f 93/4/3 88/4/3 87/4/3
f 94/8/3 89/8/3 93/8/3
f 95/7/3 91/7/3 90/7/3
f 95/8/3 89/8/3 94/8/3
f 95/7/3 90/7/3 89/7/3
f 96/7/3 91/7/3 95/7/3
f 97/2/3 92/2/3 91/2/3
f 97/7/3 91/7/3 96/7/3
f 98/4/3 94/4/3 93/4/3
f 98/4/3 93/4/3 87/4/3
f 99/4/3 94/4/3 98/4/3
f 100/4/3 94/4/3 99/4/3
f 101/7/3 96/7/3 95/7/3
f 101/4/3 94/4/3 100/4/3
f 101/7/3 95/7/3 94/7/3
f 102/2/3 97/2/3 96/2/3
f 102/7/3 96/7/3 101/7/3
f 103/4/3 98/4/3 87/4/3
f 104/3/3 99/3/3 98/3/3
f 104/4/3 98/4/3 103/4/3
f 105/4/3 100/4/3 99/4/3
f 105/3/3 99/3/3 104/3/3
f 106/3/3 101/3/3 100/3/3
f 106/4/3 100/4/3 105/4/3
f 107/4/3 102/4/3 101/4/3
f 107/3/3 101/3/3 106/3/3
f 108/2/3 97/2/3 102/2/3
f 108/4/3 102/4/3 107/4/3
f 109/2/3 72/2/3 92/2/3
f 109/2/3 97/2/3 108/2/3
f 109/2/3 92/2/3 97/2/3
f 110/6/3 106/6/3 105/6/3
f 110/3/3 107/3/3 106/3/3
f 111/6/3 108/6/3 107/6/3
f 111/3/3 107/3/3 110/3/3
f 111/6/3 109/6/3 108/6/3
f 112/2/3 72/2/3 109/2/3
f 112/6/3 109/6/3 111/6/3
f 113/2/3 31/2/3 72/2/3
f 113/2/3 72/2/3 112/2/3
f 114/6/3 104/6/3 103/6/3
f 114/3/3 105/3/3 104/3/3
f 115/6/3 110/6/3 105/6/3
f 115/3/3 105/3/3 114/3/3
f 116/1/3 111/1/3 110/1/3
f 116/6/3 110/6/3 115/6/3
f 117/6/3 112/6/3 111/6/3
f 117/1/3 111/1/3 116/1/3
f 117/6/3 113/6/3 112/6/3
f 118/6/3 113/6/3 117/6/3
f 119/6/3 113/6/3 118/6/3
f 120/6/3 113/6/3 119/6/3
f 121/2/3 31/2/3 113/2/3
f 121/6/3 113/6/3 120/6/3
f 122/2/3 31/2/3 121/2/3
f 123/6/3 114/6/3 103/6/3
f 123/6/3 115/6/3 114/6/3
f 124/7/3 116/7/3 115/7/3
f 124/6/3 115/6/3 123/6/3
f 125/1/3 117/1/3 116/1/3
f 125/7/3 116/7/3 124/7/3
f 126/7/3 118/7/3 117/7/3
f 126/1/3 117/1/3 125/1/3
f 127/6/3 119/6/3 118/6/3
f 127/7/3 118/7/3 126/7/3
f 128/6/3 119/6/3 127/6/3
f 129/2/3 120/2/3 119/2/3
f 129/6/3 119/6/3 128/6/3
f 130/6/3 122/6/3 121/6/3
f 130/2/3 120/2/3 129/2/3
f 130/6/3 121/6/3 120/6/3
f 131/2/3 31/2/3 122/2/3
f 131/6/3 122/6/3 130/6/3
f 132/6/3 123/6/3 103/6/3
f 132/7/3 124/7/3 123/7/3
f 133/6/3 128/6/3 127/6/3
f 133/7/3 124/7/3 132/7/3
f 133/6/3 125/6/3 124/6/3
f 133/6/3 127/6/3 126/6/3
f 133/6/3 126/6/3 125/6/3
f 134/6/3 128/6/3 133/6/3
f 135/6/3 132/6/3 103/6/3
f 135/6/3 133/6/3 132/6/3
f 136/7/3 134/7/3 133/7/3
f 136/6/3 133/6/3 135/6/3
f 137/6/3 128/6/3 134/6/3
f 137/7/3 134/7/3 136/7/3
f 138/7/3 136/7/3 135/7/3
f 138/6/3 135/6/3 103/6/3
f 139/6/3 137/6/3 136/6/3
f 139/7/3 136/7/3 138/7/3
f 140/6/3 128/6/3 137/6/3
f 140/6/3 137/6/3 139/6/3
f 141/6/3 128/6/3 140/6/3
f 142/6/3 128/6/3 141/6/3
f 143/6/3 139/6/3 138/6/3
f 143/7/3 140/7/3 139/7/3
f 144/1/3 141/1/3 140/1/3
f 144/7/3 140/7/3 143/7/3
f 145/7/3 142/7/3 141/7/3
f 145/1/3 141/1/3 144/1/3
f 146/6/3 128/6/3 142/6/3
f 146/7/3 142/7/3 145/7/3
f 147/2/3 130/2/3 129/2/3
f 147/6/3 128/6/3 146/6/3
f 147/2/3 129/2/3 128/2/3
f 147/2/3 131/2/3 130/2/3
f 148/2/3 131/2/3 147/2/3
f 149/6/3 143/6/3 138/6/3
f 149/6/3 144/6/3 143/6/3
f 149/6/3 138/6/3 103/6/3
f 150/6/3 144/6/3 149/6/3
f 151/1/3 145/1/3 144/1/3
f 151/6/3 144/6/3 150/6/3
f 152/6/3 146/6/3 145/6/3
f 152/1/3 145/1/3 151/1/3
f 152/6/3 148/6/3 147/6/3
f 152/6/3 147/6/3 146/6/3
f 153/2/3 131/2/3 148/2/3
f 153/6/3 148/6/3 152/6/3
f 154/2/3 131/2/3 153/2/3
f 155/6/3 153/6/3 152/6/3
f 155/2/3 131/2/3 154/2/3
f 155/6/3 154/6/3 153/6/3
f 156/2/3 31/2/3 131/2/3
f 156/2/3 131/2/3 155/2/3
f 157/3/3 150/3/3 149/3/3
f 157/6/3 149/6/3 103/6/3
f 158/6/3 151/6/3 150/6/3
f 158/3/3 150/3/3 157/3/3
f 159/6/3 156/6/3 155/6/3
f 160/2/3 31/2/3 156/2/3
f 160/6/3 156/6/3 159/6/3
f 161/3/3 152/3/3 151/3/3
f 161/6/3 151/6/3 158/6/3
f 161/6/3 158/6/3 157/6/3
f 162/6/3 155/6/3 152/6/3
f 162/3/3 152/3/3 161/3/3
f 162/6/3 159/6/3 155/6/3
f 163/6/3 159/6/3 162/6/3
f 164/6/3 159/6/3 163/6/3
f 165/2/3 160/2/3 159/2/3
f 165/6/3 159/6/3 164/6/3
f 166/6/3 161/6/3 157/6/3
f 166/6/3 162/6/3 161/6/3
f 166/6/3 163/6/3 162/6/3
f 167/6/3 163/6/3 166/6/3
f 168/4/3 164/4/3 163/4/3
f 168/6/3 163/6/3 167/6/3
f 169/6/3 157/6/3 103/6/3
f 169/6/3 166/6/3 157/6/3
f 170/3/3 167/3/3 166/3/3
f 170/6/3 166/6/3 169/6/3
f 171/4/3 168/4/3 167/4/3
f 171/3/3 167/3/3 170/3/3
f 172/4/3 164/4/3 168/4/3
f 172/4/3 168/4/3 171/4/3
f 173/3/3 171/3/3 170/3/3
f 173/4/3 164/4/3 172/4/3
f 173/3/3 172/3/3 171/3/3
f 173/3/3 170/3/3 169/3/3
f 174/2/3 165/2/3 164/2/3
f 174/4/3 164/4/3 173/4/3
f 175/2/3 165/2/3 174/2/3
f 176/3/3 173/3/3 169/3/3
f 177/3/3 173/3/3 176/3/3
f 178/3/3 173/3/3 177/3/3
f 179/3/3 173/3/3 178/3/3
f 180/3/3 173/3/3 179/3/3
f 181/4/3 177/4/3 176/4/3
f 181/6/3 178/6/3 177/6/3
f 182/3/3 179/3/3 178/3/3
f 182/6/3 178/6/3 181/6/3
f 183/3/3 179/3/3 182/3/3
f 184/6/3 180/6/3 179/6/3
f 184/3/3 179/3/3 183/3/3
f 185/3/3 173/3/3 180/3/3
f 185/6/3 180/6/3 184/6/3
f 186/6/3 174/6/3 173/6/3
f 186/6/3 175/6/3 174/6/3
f 187/2/3 165/2/3 175/2/3
f 187/6/3 175/6/3 186/6/3
f 188/6/3 183/6/3 182/6/3
f 188/4/3 182/4/3 181/4/3
f 189/3/3 185/3/3 184/3/3
f 189/6/3 183/6/3 188/6/3
f 189/3/3 184/3/3 183/3/3
f 190/6/3 186/6/3 173/6/3
f 190/3/3 185/3/3 189/3/3
f 190/3/3 173/3/3 185/3/3
f 191/2/3 187/2/3 186/2/3
f 191/6/3 186/6/3 190/6/3
f 192/4/3 189/4/3 188/4/3
f 192/4/3 181/4/3 176/4/3
f 192/4/3 191/4/3 190/4/3
f 192/4/3 188/4/3 181/4/3
f 192/4/3 190/4/3 189/4/3
f 193/2/3 187/2/3 191/2/3
f 193/4/3 191/4/3 192/4/3
f 194/2/3 160/2/3 165/2/3
f 194/2/3 187/2/3 193/2/3
f 194/2/3 31/2/3 160/2/3
f 194/2/3 165/2/3 187/2/3
f 195/5/4 196/5/4 197/5/4
f 197/5/4 196/5/4 198/5/4
f 201/5/5 200/5/5 199/5/5
f 202/5/5 200/5/5 201/5/5
f 205/5/5 204/5/5 203/5/5
f 206/5/5 204/5/5 205/5/5
f 207/5/6 208/5/6 209/5/6
f 209/5/6 208/5/6 210/5/6
f 210/5/6 208/5/6 211/5/6
f 211/5/6 208/5/6 212/5/6
f 212/5/6 208/5/6 213/5/6
f 213/5/6 208/5/6 214/5/6
f 214/5/6 208/5/6 215/5/6
f 216/5/6 217/5/6 218/5/6
f 218/5/6 217/5/6 219/5/6
