# MagicaVoxel @ Ephtracy

# group
o 

# material
mtllib phone 1.mtl
usemtl palette

# normals
vn -1 0 0
vn 1 0 0
vn 0 0 1
vn 0 0 -1
vn 0 -1 0
vn 0 1 0

# texcoords
vt 0.970703 0.5
vt 0.990234 0.5
vt 0.994141 0.5

# verts
v -1.8 0.5 -0.7
v -1.8 0.5 -1.4
v -1.8 0.5 -1.6
v -1.8 0.5 -2.4
v -1.8 0.6 -0.7
v -1.8 0.6 -1.4
v -1.8 0.6 -1.6
v -1.8 0.6 -2.4
v -1.7 0.4 2.7
v -1.7 0.4 -2.9
v -1.7 0.5 -0.7
v -1.7 0.5 -1.4
v -1.7 0.5 -1.6
v -1.7 0.5 -2.4
v -1.7 0.6 -0.7
v -1.7 0.6 -1.4
v -1.7 0.6 -1.6
v -1.7 0.6 -2.4
v -1.7 0.7 2.7
v -1.7 0.7 -2.9
v -1.6 0.4 2.9
v -1.6 0.4 2.7
v -1.6 0.4 -2.9
v -1.6 0.4 -3.1
v -1.6 0.7 2.9
v -1.6 0.7 2.7
v -1.6 0.7 -2.9
v -1.6 0.7 -3.1
v -1.4 0.4 3
v -1.4 0.4 2.9
v -1.4 0.4 -3.1
v -1.4 0.4 -3.2
v -1.4 0.7 3
v -1.4 0.7 2.9
v -1.4 0.7 -3.1
v -1.4 0.7 -3.2
v 0.5 0.3 -2.4
v 0.5 0.3 -2.7
v 0.5 0.4 -2.4
v 0.5 0.4 -2.7
v 1 0.2 -2.4
v 1 0.2 -2.7
v 1 0.3 -2.2
v 1 0.3 -2.4
v 1 0.3 -2.7
v 1 0.3 -2.9
v 1 0.4 -2.2
v 1 0.4 -2.9
v 1.1 0.2 -2.3
v 1.1 0.2 -2.4
v 1.1 0.2 -2.7
v 1.1 0.2 -2.8
v 1.1 0.3 -2.3
v 1.1 0.3 -2.4
v 1.1 0.3 -2.7
v 1.1 0.3 -2.8
v 0.8 0.3 -2.4
v 0.8 0.3 -2.7
v 0.8 0.4 -2.4
v 0.8 0.4 -2.7
v 1.4 0.2 -2.3
v 1.4 0.2 -2.4
v 1.4 0.2 -2.7
v 1.4 0.2 -2.8
v 1.4 0.3 -2.3
v 1.4 0.3 -2.4
v 1.4 0.3 -2.7
v 1.4 0.3 -2.8
v 1.4 0.4 3
v 1.4 0.4 2.9
v 1.4 0.4 -3.1
v 1.4 0.4 -3.2
v 1.4 0.7 3
v 1.4 0.7 2.9
v 1.4 0.7 -3.1
v 1.4 0.7 -3.2
v 1.5 0.2 -2.4
v 1.5 0.2 -2.7
v 1.5 0.3 -2.2
v 1.5 0.3 -2.4
v 1.5 0.3 -2.7
v 1.5 0.3 -2.9
v 1.5 0.4 -2.2
v 1.5 0.4 -2.9
v 1.6 0.4 2.9
v 1.6 0.4 2.7
v 1.6 0.4 -2.9
v 1.6 0.4 -3.1
v 1.6 0.7 2.9
v 1.6 0.7 2.7
v 1.6 0.7 -2.9
v 1.6 0.7 -3.1
v 1.7 0.4 2.7
v 1.7 0.4 -2.9
v 1.7 0.5 -0.4
v 1.7 0.5 -1.6
v 1.7 0.6 -0.4
v 1.7 0.6 -1.6
v 1.7 0.7 2.7
v 1.7 0.7 -2.9
v 1.8 0.5 -0.4
v 1.8 0.5 -1.6
v 1.8 0.6 -0.4
v 1.8 0.6 -1.6
v -1.4 0.4 3
v -1.4 0.7 3
v 1.4 0.4 3
v 1.4 0.7 3
v -1.6 0.4 2.9
v -1.6 0.7 2.9
v -1.4 0.4 2.9
v -1.4 0.7 2.9
v 1.4 0.4 2.9
v 1.4 0.7 2.9
v 1.6 0.4 2.9
v 1.6 0.7 2.9
v -1.7 0.4 2.7
v -1.7 0.7 2.7
v -1.6 0.4 2.7
v -1.6 0.7 2.7
v 1.6 0.4 2.7
v 1.6 0.7 2.7
v 1.7 0.4 2.7
v 1.7 0.7 2.7
v 1.7 0.5 -0.4
v 1.7 0.6 -0.4
v 1.8 0.5 -0.4
v 1.8 0.6 -0.4
v -1.8 0.5 -0.7
v -1.8 0.6 -0.7
v -1.7 0.5 -0.7
v -1.7 0.6 -0.7
v -1.8 0.5 -1.6
v -1.8 0.6 -1.6
v -1.7 0.5 -1.6
v -1.7 0.6 -1.6
v 1 0.3 -2.2
v 1 0.4 -2.2
v 1.5 0.3 -2.2
v 1.5 0.4 -2.2
v 1.1 0.2 -2.3
v 1.1 0.3 -2.3
v 1.4 0.2 -2.3
v 1.4 0.3 -2.3
v 0.5 0.3 -2.4
v 0.5 0.4 -2.4
v 0.8 0.3 -2.4
v 0.8 0.4 -2.4
v 1 0.2 -2.4
v 1 0.3 -2.4
v 1.1 0.2 -2.4
v 1.1 0.3 -2.4
v 1.4 0.2 -2.4
v 1.4 0.3 -2.4
v 1.5 0.2 -2.4
v 1.5 0.3 -2.4
v -1.8 0.5 -1.4
v -1.8 0.6 -1.4
v -1.7 0.5 -1.4
v -1.7 0.6 -1.4
v 1.7 0.5 -1.6
v 1.7 0.6 -1.6
v 1.8 0.5 -1.6
v 1.8 0.6 -1.6
v -1.8 0.5 -2.4
v -1.8 0.6 -2.4
v -1.7 0.5 -2.4
v -1.7 0.6 -2.4
v 0.5 0.3 -2.7
v 0.5 0.4 -2.7
v 0.8 0.3 -2.7
v 0.8 0.4 -2.7
v 1 0.2 -2.7
v 1 0.3 -2.7
v 1.1 0.2 -2.7
v 1.1 0.3 -2.7
v 1.4 0.2 -2.7
v 1.4 0.3 -2.7
v 1.5 0.2 -2.7
v 1.5 0.3 -2.7
v 1.1 0.2 -2.8
v 1.1 0.3 -2.8
v 1.4 0.2 -2.8
v 1.4 0.3 -2.8
v -1.7 0.4 -2.9
v -1.7 0.7 -2.9
v -1.6 0.4 -2.9
v -1.6 0.7 -2.9
v 1 0.3 -2.9
v 1 0.4 -2.9
v 1.5 0.3 -2.9
v 1.5 0.4 -2.9
v 1.6 0.4 -2.9
v 1.6 0.7 -2.9
v 1.7 0.4 -2.9
v 1.7 0.7 -2.9
v -1.6 0.4 -3.1
v -1.6 0.7 -3.1
v -1.4 0.4 -3.1
v -1.4 0.7 -3.1
v 1.4 0.4 -3.1
v 1.4 0.7 -3.1
v 1.6 0.4 -3.1
v 1.6 0.7 -3.1
v -1.4 0.4 -3.2
v -1.4 0.7 -3.2
v 1.4 0.4 -3.2
v 1.4 0.7 -3.2
v 1.1 0.2 -2.3
v 1.4 0.2 -2.3
v 1 0.2 -2.4
v 1.1 0.2 -2.4
v 1.4 0.2 -2.4
v 1.5 0.2 -2.4
v 1 0.2 -2.7
v 1.1 0.2 -2.7
v 1.4 0.2 -2.7
v 1.5 0.2 -2.7
v 1.1 0.2 -2.8
v 1.4 0.2 -2.8
v 1 0.3 -2.2
v 1.5 0.3 -2.2
v 1.1 0.3 -2.3
v 1.4 0.3 -2.3
v 0.5 0.3 -2.4
v 0.8 0.3 -2.4
v 1 0.3 -2.4
v 1.1 0.3 -2.4
v 1.4 0.3 -2.4
v 1.5 0.3 -2.4
v 0.5 0.3 -2.7
v 0.8 0.3 -2.7
v 1 0.3 -2.7
v 1.1 0.3 -2.7
v 1.4 0.3 -2.7
v 1.5 0.3 -2.7
v 1.1 0.3 -2.8
v 1.4 0.3 -2.8
v 1 0.3 -2.9
v 1.5 0.3 -2.9
v -1.4 0.4 3
v 1.4 0.4 3
v -1.6 0.4 2.9
v -1.4 0.4 2.9
v 1.4 0.4 2.9
v 1.6 0.4 2.9
v -1.7 0.4 2.7
v -1.6 0.4 2.7
v 1.6 0.4 2.7
v 1.7 0.4 2.7
v 1 0.4 -2.2
v 1.5 0.4 -2.2
v 0.5 0.4 -2.4
v 0.8 0.4 -2.4
v 0.5 0.4 -2.7
v 0.8 0.4 -2.7
v -1.7 0.4 -2.9
v -1.6 0.4 -2.9
v 1 0.4 -2.9
v 1.5 0.4 -2.9
v 1.6 0.4 -2.9
v 1.7 0.4 -2.9
v -1.6 0.4 -3.1
v -1.4 0.4 -3.1
v 1.4 0.4 -3.1
v 1.6 0.4 -3.1
v -1.4 0.4 -3.2
v 1.4 0.4 -3.2
v 1.7 0.5 -0.4
v 1.8 0.5 -0.4
v -1.8 0.5 -0.7
v -1.7 0.5 -0.7
v -1.8 0.5 -1.4
v -1.7 0.5 -1.4
v -1.8 0.5 -1.6
v -1.7 0.5 -1.6
v 1.7 0.5 -1.6
v 1.8 0.5 -1.6
v -1.8 0.5 -2.4
v -1.7 0.5 -2.4
v 1.7 0.6 -0.4
v 1.8 0.6 -0.4
v -1.8 0.6 -0.7
v -1.7 0.6 -0.7
v -1.8 0.6 -1.4
v -1.7 0.6 -1.4
v -1.8 0.6 -1.6
v -1.7 0.6 -1.6
v 1.7 0.6 -1.6
v 1.8 0.6 -1.6
v -1.8 0.6 -2.4
v -1.7 0.6 -2.4
v -1.4 0.7 3
v 1.4 0.7 3
v -1.6 0.7 2.9
v -1.4 0.7 2.9
v 1.4 0.7 2.9
v 1.6 0.7 2.9
v -1.7 0.7 2.7
v -1.6 0.7 2.7
v 1.6 0.7 2.7
v 1.7 0.7 2.7
v -1.7 0.7 -2.9
v -1.6 0.7 -2.9
v 1.6 0.7 -2.9
v 1.7 0.7 -2.9
v -0.7 0.7 -3
v -0.0999999 0.7 -3
v 0.2 0.7 -3
v 0.3 0.7 -3
v -1.6 0.7 -3.1
v -1.4 0.7 -3.1
v -0.7 0.7 -3.1
v -0.0999999 0.7 -3.1
v 0.2 0.7 -3.1
v 0.3 0.7 -3.1
v 1.4 0.7 -3.1
v 1.6 0.7 -3.1
v -1.4 0.7 -3.2
v 1.4 0.7 -3.2

# faces
f 5/2/1 2/2/1 1/2/1
f 6/2/1 2/2/1 5/2/1
f 7/2/1 4/2/1 3/2/1
f 8/2/1 4/2/1 7/2/1
f 11/3/1 10/3/1 9/3/1
f 12/3/1 10/3/1 11/3/1
f 13/3/1 10/3/1 12/3/1
f 14/3/1 10/3/1 13/3/1
f 15/3/1 11/3/1 9/3/1
f 16/3/1 13/3/1 12/3/1
f 17/3/1 13/3/1 16/3/1
f 18/3/1 10/3/1 14/3/1
f 19/3/1 17/3/1 16/3/1
f 19/3/1 18/3/1 17/3/1
f 19/3/1 15/3/1 9/3/1
f 19/3/1 16/3/1 15/3/1
f 20/3/1 10/3/1 18/3/1
f 20/3/1 18/3/1 19/3/1
f 25/3/1 22/3/1 21/3/1
f 26/3/1 22/3/1 25/3/1
f 27/3/1 24/3/1 23/3/1
f 28/3/1 24/3/1 27/3/1
f 33/3/1 30/3/1 29/3/1
f 34/3/1 30/3/1 33/3/1
f 35/3/1 32/3/1 31/3/1
f 36/3/1 32/3/1 35/3/1
f 39/1/1 38/1/1 37/1/1
f 40/1/1 38/1/1 39/1/1
f 44/2/1 42/2/1 41/2/1
f 45/2/1 42/2/1 44/2/1
f 47/3/1 44/3/1 43/3/1
f 47/3/1 46/3/1 45/3/1
f 47/3/1 45/3/1 44/3/1
f 48/3/1 46/3/1 47/3/1
f 53/2/1 50/2/1 49/2/1
f 54/2/1 50/2/1 53/2/1
f 55/2/1 52/2/1 51/2/1
f 56/2/1 52/2/1 55/2/1
f 57/1/2 58/1/2 59/1/2
f 59/1/2 58/1/2 60/1/2
f 61/2/2 62/2/2 65/2/2
f 65/2/2 62/2/2 66/2/2
f 63/2/2 64/2/2 67/2/2
f 67/2/2 64/2/2 68/2/2
f 69/3/2 70/3/2 73/3/2
f 73/3/2 70/3/2 74/3/2
f 71/3/2 72/3/2 75/3/2
f 75/3/2 72/3/2 76/3/2
f 77/2/2 78/2/2 80/2/2
f 80/2/2 78/2/2 81/2/2
f 79/3/2 80/3/2 83/3/2
f 81/3/2 82/3/2 83/3/2
f 80/3/2 81/3/2 83/3/2
f 83/3/2 82/3/2 84/3/2
f 85/3/2 86/3/2 89/3/2
f 89/3/2 86/3/2 90/3/2
f 87/3/2 88/3/2 91/3/2
f 91/3/2 88/3/2 92/3/2
f 93/3/2 94/3/2 95/3/2
f 95/3/2 94/3/2 96/3/2
f 93/3/2 95/3/2 97/3/2
f 96/3/2 94/3/2 98/3/2
f 93/3/2 97/3/2 99/3/2
f 97/3/2 98/3/2 99/3/2
f 98/3/2 94/3/2 100/3/2
f 99/3/2 98/3/2 100/3/2
f 101/2/2 102/2/2 103/2/2
f 103/2/2 102/2/2 104/2/2
f 107/3/3 106/3/3 105/3/3
f 108/3/3 106/3/3 107/3/3
f 111/3/3 110/3/3 109/3/3
f 112/3/3 110/3/3 111/3/3
f 115/3/3 114/3/3 113/3/3
f 116/3/3 114/3/3 115/3/3
f 119/3/3 118/3/3 117/3/3
f 120/3/3 118/3/3 119/3/3
f 123/3/3 122/3/3 121/3/3
f 124/3/3 122/3/3 123/3/3
f 127/2/3 126/2/3 125/2/3
f 128/2/3 126/2/3 127/2/3
f 131/2/3 130/2/3 129/2/3
f 132/2/3 130/2/3 131/2/3
f 135/2/3 134/2/3 133/2/3
f 136/2/3 134/2/3 135/2/3
f 139/3/3 138/3/3 137/3/3
f 140/3/3 138/3/3 139/3/3
f 143/2/3 142/2/3 141/2/3
f 144/2/3 142/2/3 143/2/3
f 147/1/3 146/1/3 145/1/3
f 148/1/3 146/1/3 147/1/3
f 151/2/3 150/2/3 149/2/3
f 152/2/3 150/2/3 151/2/3
f 155/2/3 154/2/3 153/2/3
f 156/2/3 154/2/3 155/2/3
f 157/2/4 158/2/4 159/2/4
f 159/2/4 158/2/4 160/2/4
f 161/2/4 162/2/4 163/2/4
f 163/2/4 162/2/4 164/2/4
f 165/2/4 166/2/4 167/2/4
f 167/2/4 166/2/4 168/2/4
f 169/1/4 170/1/4 171/1/4
f 171/1/4 170/1/4 172/1/4
f 173/2/4 174/2/4 175/2/4
f 175/2/4 174/2/4 176/2/4
f 177/2/4 178/2/4 179/2/4
f 179/2/4 178/2/4 180/2/4
f 181/2/4 182/2/4 183/2/4
f 183/2/4 182/2/4 184/2/4
f 185/3/4 186/3/4 187/3/4
f 187/3/4 186/3/4 188/3/4
f 189/3/4 190/3/4 191/3/4
f 191/3/4 190/3/4 192/3/4
f 193/3/4 194/3/4 195/3/4
f 195/3/4 194/3/4 196/3/4
f 197/3/4 198/3/4 199/3/4
f 199/3/4 198/3/4 200/3/4
f 201/3/4 202/3/4 203/3/4
f 203/3/4 202/3/4 204/3/4
f 205/3/4 206/3/4 207/3/4
f 207/3/4 206/3/4 208/3/4
f 212/2/5 210/2/5 209/2/5
f 213/2/5 210/2/5 212/2/5
f 215/2/5 212/2/5 211/2/5
f 216/3/5 213/3/5 212/3/5
f 216/2/5 212/2/5 215/2/5
f 217/2/5 214/2/5 213/2/5
f 217/3/5 213/3/5 216/3/5
f 218/2/5 214/2/5 217/2/5
f 219/2/5 217/2/5 216/2/5
f 220/2/5 217/2/5 219/2/5
f 223/3/5 222/3/5 221/3/5
f 224/3/5 222/3/5 223/3/5
f 227/3/5 223/3/5 221/3/5
f 228/3/5 223/3/5 227/3/5
f 229/3/5 222/3/5 224/3/5
f 230/3/5 222/3/5 229/3/5
f 231/1/5 226/1/5 225/1/5
f 232/1/5 226/1/5 231/1/5
f 237/3/5 234/3/5 233/3/5
f 238/3/5 236/3/5 235/3/5
f 239/3/5 237/3/5 233/3/5
f 239/3/5 238/3/5 237/3/5
f 240/3/5 236/3/5 238/3/5
f 240/3/5 238/3/5 239/3/5
f 244/3/5 242/3/5 241/3/5
f 245/3/5 242/3/5 244/3/5
f 248/3/5 244/3/5 243/3/5
f 248/3/5 246/3/5 245/3/5
f 248/3/5 245/3/5 244/3/5
f 249/3/5 246/3/5 248/3/5
f 251/3/5 248/3/5 247/3/5
f 251/3/5 250/3/5 249/3/5
f 251/3/5 249/3/5 248/3/5
f 252/3/5 250/3/5 251/3/5
f 253/3/5 251/3/5 247/3/5
f 254/3/5 251/3/5 253/3/5
f 255/3/5 253/3/5 247/3/5
f 256/3/5 251/3/5 254/3/5
f 257/3/5 255/3/5 247/3/5
f 257/3/5 256/3/5 255/3/5
f 258/3/5 256/3/5 257/3/5
f 259/3/5 251/3/5 256/3/5
f 259/3/5 256/3/5 258/3/5
f 260/3/5 250/3/5 252/3/5
f 261/3/5 250/3/5 260/3/5
f 262/3/5 250/3/5 261/3/5
f 263/3/5 259/3/5 258/3/5
f 263/3/5 261/3/5 260/3/5
f 263/3/5 260/3/5 259/3/5
f 264/3/5 261/3/5 263/3/5
f 265/3/5 261/3/5 264/3/5
f 266/3/5 261/3/5 265/3/5
f 267/3/5 265/3/5 264/3/5
f 268/3/5 265/3/5 267/3/5
f 273/2/5 272/2/5 271/2/5
f 274/2/5 272/2/5 273/2/5
f 277/2/5 270/2/5 269/2/5
f 278/2/5 270/2/5 277/2/5
f 279/2/5 276/2/5 275/2/5
f 280/2/5 276/2/5 279/2/5
f 283/2/6 284/2/6 285/2/6
f 285/2/6 284/2/6 286/2/6
f 281/2/6 282/2/6 289/2/6
f 289/2/6 282/2/6 290/2/6
f 287/2/6 288/2/6 291/2/6
f 291/2/6 288/2/6 292/2/6
f 293/3/6 294/3/6 296/3/6
f 296/3/6 294/3/6 297/3/6
f 295/3/6 296/3/6 300/3/6
f 297/3/6 298/3/6 300/3/6
f 296/3/6 297/3/6 300/3/6
f 300/3/6 298/3/6 301/3/6
f 299/3/6 300/3/6 303/3/6
f 301/3/6 302/3/6 303/3/6
f 300/3/6 301/3/6 303/3/6
f 303/3/6 302/3/6 304/3/6
f 304/3/6 302/3/6 305/3/6
f 305/3/6 302/3/6 306/3/6
f 304/3/6 305/3/6 307/3/6
f 307/3/6 305/3/6 308/3/6
f 308/3/6 305/3/6 309/3/6
f 309/3/6 305/3/6 310/3/6
f 304/3/6 307/3/6 311/3/6
f 311/3/6 307/3/6 312/3/6
f 307/2/6 308/2/6 313/2/6
f 312/3/6 307/3/6 313/3/6
f 308/3/6 309/3/6 314/3/6
f 313/2/6 308/2/6 314/2/6
f 309/2/6 310/2/6 315/2/6
f 314/3/6 309/3/6 315/3/6
f 310/3/6 305/3/6 316/3/6
f 315/2/6 310/2/6 316/2/6
f 316/3/6 305/3/6 317/3/6
f 317/3/6 305/3/6 318/3/6
f 314/3/6 315/3/6 319/3/6
f 316/3/6 317/3/6 319/3/6
f 315/3/6 316/3/6 319/3/6
f 312/3/6 313/3/6 319/3/6
f 313/3/6 314/3/6 319/3/6
f 319/3/6 317/3/6 320/3/6
