# MagicaVoxel @ Ephtracy

# group
o 

# material
mtllib switch 1.mtl
usemtl palette

# normals
vn -1 0 0
vn 1 0 0
vn 0 0 1
vn 0 0 -1
vn 0 -1 0
vn 0 1 0

# texcoords
vt 0.958984 0.5
vt 0.970703 0.5
vt 0.982422 0.5

# verts
v -1.4 2.6 1.2
v -1.4 2.6 -1.1
v -1.4 2.7 1.2
v -1.4 2.7 -1.1
v -1.3 2.5 1.3
v -1.3 2.5 -1.2
v -1.3 2.6 1.2
v -1.3 2.6 -1.1
v -1.3 2.7 1.3
v -1.3 2.7 1.2
v -1.3 2.7 1.1
v -1.3 2.7 -1
v -1.3 2.7 -1.1
v -1.3 2.7 -1.2
v -1.3 2.8 1.1
v -1.3 2.8 -1
v -1.2 2.6 1.4
v -1.2 2.6 1.3
v -1.2 2.6 -1.2
v -1.2 2.6 -1.3
v -1.2 2.7 1.4
v -1.2 2.7 1.3
v -1.2 2.7 1.2
v -1.2 2.7 1.1
v -1.2 2.7 -1
v -1.2 2.7 -1.1
v -1.2 2.7 -1.2
v -1.2 2.7 -1.3
v -1.2 2.8 1.2
v -1.2 2.8 1.1
v -1.2 2.8 1
v -1.2 2.8 -0.9
v -1.2 2.8 -1
v -1.2 2.8 -1.1
v -1.2 2.9 1
v -1.2 2.9 -0.9
v -1.1 2.7 1.3
v -1.1 2.7 1.2
v -1.1 2.7 -1.1
v -1.1 2.7 -1.2
v -1.1 2.8 1.3
v -1.1 2.8 1.2
v -1.1 2.8 1.1
v -1.1 2.8 1
v -1.1 2.8 -0.9
v -1.1 2.8 -1
v -1.1 2.8 -1.1
v -1.1 2.8 -1.2
v -1.1 2.9 1.1
v -1.1 2.9 1
v -1.1 2.9 -0.9
v -1.1 2.9 -1
v -1 2.8 1.2
v -1 2.8 1.1
v -1 2.8 -1
v -1 2.8 -1.1
v -1 2.9 1.2
v -1 2.9 1.1
v -1 2.9 0.8
v -1 2.9 0.1
v -1 2.9 0
v -1 2.9 -0.7
v -1 2.9 -1
v -1 2.9 -1.1
v -1 3 0.8
v -1 3 0.1
v -1 3 0
v -1 3 -0.7
v -0.9 2.9 0.9
v -0.9 2.9 0.8
v -0.9 2.9 -0.7
v -0.9 2.9 -0.8
v -0.9 3 0.9
v -0.9 3 0.8
v -0.9 3 -0.7
v -0.9 3 -0.8
v -0.8 2.9 1
v -0.8 2.9 0.9
v -0.8 2.9 -0.8
v -0.8 2.9 -0.9
v -0.8 3 1
v -0.8 3 0.9
v -0.8 3 -0.8
v -0.8 3 -0.9
v 0.2 2.7 0.5
v 0.2 2.7 0.2
v 0.2 2.7 -0.1
v 0.2 2.7 -0.4
v 0.2 2.8 0.5
v 0.2 2.8 0.2
v 0.2 2.8 -0.1
v 0.2 2.8 -0.4
v 0.2 2.9 0.5
v 0.2 2.9 0.2
v 0.2 2.9 -0.1
v 0.2 2.9 -0.4
v -0.1 2.7 0.5
v -0.1 2.7 0.2
v -0.1 2.7 -0.1
v -0.1 2.7 -0.4
v -0.1 2.8 0.5
v -0.1 2.8 0.2
v -0.1 2.8 -0.1
v -0.1 2.8 -0.4
v -0.1 2.9 0.5
v -0.1 2.9 0.2
v -0.1 2.9 -0.1
v -0.1 2.9 -0.4
v 0.9 2.9 1
v 0.9 2.9 0.9
v 0.9 2.9 -0.8
v 0.9 2.9 -0.9
v 0.9 3 1
v 0.9 3 0.9
v 0.9 3 -0.8
v 0.9 3 -0.9
v 1 2.9 0.9
v 1 2.9 0.8
v 1 2.9 -0.7
v 1 2.9 -0.8
v 1 3 0.9
v 1 3 0.8
v 1 3 -0.7
v 1 3 -0.8
v 1.1 2.8 1.2
v 1.1 2.8 1.1
v 1.1 2.8 -1
v 1.1 2.8 -1.1
v 1.1 2.9 1.2
v 1.1 2.9 1.1
v 1.1 2.9 0.8
v 1.1 2.9 0.1
v 1.1 2.9 0
v 1.1 2.9 -0.7
v 1.1 2.9 -1
v 1.1 2.9 -1.1
v 1.1 3 0.8
v 1.1 3 0.1
v 1.1 3 0
v 1.1 3 -0.7
v 1.2 2.7 1.3
v 1.2 2.7 1.2
v 1.2 2.7 -1.1
v 1.2 2.7 -1.2
v 1.2 2.8 1.3
v 1.2 2.8 1.2
v 1.2 2.8 1.1
v 1.2 2.8 1
v 1.2 2.8 -0.9
v 1.2 2.8 -1
v 1.2 2.8 -1.1
v 1.2 2.8 -1.2
v 1.2 2.9 1.1
v 1.2 2.9 1
v 1.2 2.9 -0.9
v 1.2 2.9 -1
v 1.3 2.6 1.4
v 1.3 2.6 1.3
v 1.3 2.6 -1.2
v 1.3 2.6 -1.3
v 1.3 2.7 1.4
v 1.3 2.7 1.3
v 1.3 2.7 1.2
v 1.3 2.7 1.1
v 1.3 2.7 -1
v 1.3 2.7 -1.1
v 1.3 2.7 -1.2
v 1.3 2.7 -1.3
v 1.3 2.8 1.2
v 1.3 2.8 1.1
v 1.3 2.8 1
v 1.3 2.8 -0.9
v 1.3 2.8 -1
v 1.3 2.8 -1.1
v 1.3 2.9 1
v 1.3 2.9 -0.9
v 1.4 2.5 1.3
v 1.4 2.5 -1.2
v 1.4 2.6 1.2
v 1.4 2.6 -1.1
v 1.4 2.7 1.3
v 1.4 2.7 1.2
v 1.4 2.7 1.1
v 1.4 2.7 -1
v 1.4 2.7 -1.1
v 1.4 2.7 -1.2
v 1.4 2.8 1.1
v 1.4 2.8 -1
v 1.5 2.6 1.2
v 1.5 2.6 -1.1
v 1.5 2.7 1.2
v 1.5 2.7 -1.1
v -1.2 2.6 1.4
v -1.2 2.7 1.4
v 1.3 2.6 1.4
v 1.3 2.7 1.4
v -1.3 2.5 1.3
v -1.3 2.7 1.3
v -1.2 2.6 1.3
v -1.2 2.7 1.3
v -1.1 2.7 1.3
v -1.1 2.8 1.3
v 1.2 2.7 1.3
v 1.2 2.8 1.3
v 1.3 2.6 1.3
v 1.3 2.7 1.3
v 1.4 2.5 1.3
v 1.4 2.7 1.3
v -1.4 2.6 1.2
v -1.4 2.7 1.2
v -1.3 2.6 1.2
v -1.3 2.7 1.2
v -1.2 2.7 1.2
v -1.2 2.8 1.2
v -1.1 2.7 1.2
v -1.1 2.8 1.2
v -1 2.8 1.2
v -1 2.9 1.2
v 1.1 2.8 1.2
v 1.1 2.9 1.2
v 1.2 2.7 1.2
v 1.2 2.8 1.2
v 1.3 2.7 1.2
v 1.3 2.8 1.2
v 1.4 2.6 1.2
v 1.4 2.7 1.2
v 1.5 2.6 1.2
v 1.5 2.7 1.2
v -1.3 2.7 1.1
v -1.3 2.8 1.1
v -1.2 2.7 1.1
v -1.2 2.8 1.1
v -1.1 2.8 1.1
v -1.1 2.9 1.1
v -1 2.8 1.1
v -1 2.9 1.1
v 1.1 2.8 1.1
v 1.1 2.9 1.1
v 1.2 2.8 1.1
v 1.2 2.9 1.1
v 1.3 2.7 1.1
v 1.3 2.8 1.1
v 1.4 2.7 1.1
v 1.4 2.8 1.1
v -1.2 2.8 1
v -1.2 2.9 1
v -1.1 2.8 1
v -1.1 2.9 1
v -0.8 2.9 1
v -0.8 3 1
v 0.9 2.9 1
v 0.9 3 1
v 1.2 2.8 1
v 1.2 2.9 1
v 1.3 2.8 1
v 1.3 2.9 1
v -0.9 2.9 0.9
v -0.9 3 0.9
v -0.8 2.9 0.9
v -0.8 3 0.9
v 0.9 2.9 0.9
v 0.9 3 0.9
v 1 2.9 0.9
v 1 3 0.9
v -1 2.9 0.8
v -1 3 0.8
v -0.9 2.9 0.8
v -0.9 3 0.8
v 1 2.9 0.8
v 1 3 0.8
v 1.1 2.9 0.8
v 1.1 3 0.8
v -0.1 2.7 0.2
v -0.1 2.8 0.2
v -0.1 2.9 0.2
v 0.2 2.7 0.2
v 0.2 2.8 0.2
v 0.2 2.9 0.2
v -1 2.9 0
v -1 3 0
v 1.1 2.9 0
v 1.1 3 0
v -0.1 2.7 -0.4
v -0.1 2.8 -0.4
v -0.1 2.9 -0.4
v 0.2 2.7 -0.4
v 0.2 2.8 -0.4
v 0.2 2.9 -0.4
v -0.1 2.7 0.5
v -0.1 2.8 0.5
v -0.1 2.9 0.5
v 0.2 2.7 0.5
v 0.2 2.8 0.5
v 0.2 2.9 0.5
v -1 2.9 0.1
v -1 3 0.1
v 1.1 2.9 0.1
v 1.1 3 0.1
v -0.1 2.7 -0.1
v -0.1 2.8 -0.1
v -0.1 2.9 -0.1
v 0.2 2.7 -0.1
v 0.2 2.8 -0.1
v 0.2 2.9 -0.1
v -1 2.9 -0.7
v -1 3 -0.7
v -0.9 2.9 -0.7
v -0.9 3 -0.7
v 1 2.9 -0.7
v 1 3 -0.7
v 1.1 2.9 -0.7
v 1.1 3 -0.7
v -0.9 2.9 -0.8
v -0.9 3 -0.8
v -0.8 2.9 -0.8
v -0.8 3 -0.8
v 0.9 2.9 -0.8
v 0.9 3 -0.8
v 1 2.9 -0.8
v 1 3 -0.8
v -1.2 2.8 -0.9
v -1.2 2.9 -0.9
v -1.1 2.8 -0.9
v -1.1 2.9 -0.9
v -0.8 2.9 -0.9
v -0.8 3 -0.9
v 0.9 2.9 -0.9
v 0.9 3 -0.9
v 1.2 2.8 -0.9
v 1.2 2.9 -0.9
v 1.3 2.8 -0.9
v 1.3 2.9 -0.9
v -1.3 2.7 -1
v -1.3 2.8 -1
v -1.2 2.7 -1
v -1.2 2.8 -1
v -1.1 2.8 -1
v -1.1 2.9 -1
v -1 2.8 -1
v -1 2.9 -1
v 1.1 2.8 -1
v 1.1 2.9 -1
v 1.2 2.8 -1
v 1.2 2.9 -1
v 1.3 2.7 -1
v 1.3 2.8 -1
v 1.4 2.7 -1
v 1.4 2.8 -1
v -1.4 2.6 -1.1
v -1.4 2.7 -1.1
v -1.3 2.6 -1.1
v -1.3 2.7 -1.1
v -1.2 2.7 -1.1
v -1.2 2.8 -1.1
v -1.1 2.7 -1.1
v -1.1 2.8 -1.1
v -1 2.8 -1.1
v -1 2.9 -1.1
v 1.1 2.8 -1.1
v 1.1 2.9 -1.1
v 1.2 2.7 -1.1
v 1.2 2.8 -1.1
v 1.3 2.7 -1.1
v 1.3 2.8 -1.1
v 1.4 2.6 -1.1
v 1.4 2.7 -1.1
v 1.5 2.6 -1.1
v 1.5 2.7 -1.1
v -1.3 2.5 -1.2
v -1.3 2.7 -1.2
v -1.2 2.6 -1.2
v -1.2 2.7 -1.2
v -1.1 2.7 -1.2
v -1.1 2.8 -1.2
v 1.2 2.7 -1.2
v 1.2 2.8 -1.2
v 1.3 2.6 -1.2
v 1.3 2.7 -1.2
v 1.4 2.5 -1.2
v 1.4 2.7 -1.2
v -1.2 2.6 -1.3
v -1.2 2.7 -1.3
v 1.3 2.6 -1.3
v 1.3 2.7 -1.3
v -1.3 2.5 1.3
v 1.4 2.5 1.3
v -1.3 2.5 -1.2
v 1.4 2.5 -1.2
v -1.2 2.6 1.4
v 1.3 2.6 1.4
v -1.2 2.6 1.3
v 1.3 2.6 1.3
v -1.4 2.6 1.2
v -1.3 2.6 1.2
v 1.4 2.6 1.2
v 1.5 2.6 1.2
v -1.4 2.6 -1.1
v -1.3 2.6 -1.1
v 1.4 2.6 -1.1
v 1.5 2.6 -1.1
v -1.2 2.6 -1.2
v 1.3 2.6 -1.2
v -1.2 2.6 -1.3
v 1.3 2.6 -1.3
v -0.1 2.9 0.5
v 0.2 2.9 0.5
v -0.1 2.9 0.2
v 0.2 2.9 0.2
v -0.1 2.9 -0.1
v 0.2 2.9 -0.1
v -0.1 2.9 -0.4
v 0.2 2.9 -0.4
v -1.2 2.7 1.4
v 1.3 2.7 1.4
v -1.3 2.7 1.3
v -1.2 2.7 1.3
v -1.1 2.7 1.3
v 1.2 2.7 1.3
v 1.3 2.7 1.3
v 1.4 2.7 1.3
v -1.4 2.7 1.2
v -1.3 2.7 1.2
v -1.2 2.7 1.2
v -1.1 2.7 1.2
v 1.2 2.7 1.2
v 1.3 2.7 1.2
v 1.4 2.7 1.2
v 1.5 2.7 1.2
v -1.3 2.7 1.1
v -1.2 2.7 1.1
v 1.3 2.7 1.1
v 1.4 2.7 1.1
v -0.1 2.7 0.5
v 0.2 2.7 0.5
v -0.1 2.7 0.2
v 0.2 2.7 0.2
v -0.1 2.7 -0.1
v 0.2 2.7 -0.1
v -0.1 2.7 -0.4
v 0.2 2.7 -0.4
v -1.3 2.7 -1
v -1.2 2.7 -1
v 1.3 2.7 -1
v 1.4 2.7 -1
v -1.4 2.7 -1.1
v -1.3 2.7 -1.1
v -1.2 2.7 -1.1
v -1.1 2.7 -1.1
v 1.2 2.7 -1.1
v 1.3 2.7 -1.1
v 1.4 2.7 -1.1
v 1.5 2.7 -1.1
v -1.3 2.7 -1.2
v -1.2 2.7 -1.2
v -1.1 2.7 -1.2
v 1.2 2.7 -1.2
v 1.3 2.7 -1.2
v 1.4 2.7 -1.2
v -1.2 2.7 -1.3
v 1.3 2.7 -1.3
v -1.1 2.8 1.3
v 1.2 2.8 1.3
v -1.2 2.8 1.2
v -1.1 2.8 1.2
v -1 2.8 1.2
v 1.1 2.8 1.2
v 1.2 2.8 1.2
v 1.3 2.8 1.2
v -1.3 2.8 1.1
v -1.2 2.8 1.1
v -1.1 2.8 1.1
v -1 2.8 1.1
v 1.1 2.8 1.1
v 1.2 2.8 1.1
v 1.3 2.8 1.1
v 1.4 2.8 1.1
v -1.2 2.8 1
v -1.1 2.8 1
v 1.2 2.8 1
v 1.3 2.8 1
v -1.2 2.8 -0.9
v -1.1 2.8 -0.9
v 1.2 2.8 -0.9
v 1.3 2.8 -0.9
v -1.3 2.8 -1
v -1.2 2.8 -1
v -1.1 2.8 -1
v -1 2.8 -1
v 1.1 2.8 -1
v 1.2 2.8 -1
v 1.3 2.8 -1
v 1.4 2.8 -1
v -1.2 2.8 -1.1
v -1.1 2.8 -1.1
v -1 2.8 -1.1
v 1.1 2.8 -1.1
v 1.2 2.8 -1.1
v 1.3 2.8 -1.1
v -1.1 2.8 -1.2
v 1.2 2.8 -1.2
v -1 2.9 1.2
v 1.1 2.9 1.2
v -1.1 2.9 1.1
v -1 2.9 1.1
v 1.1 2.9 1.1
v 1.2 2.9 1.1
v -1.2 2.9 1
v -1.1 2.9 1
v -0.8 2.9 1
v 0.9 2.9 1
v 1.2 2.9 1
v 1.3 2.9 1
v -0.9 2.9 0.9
v -0.8 2.9 0.9
v 0.9 2.9 0.9
v 1 2.9 0.9
v -1 2.9 0.8
v -0.9 2.9 0.8
v 1 2.9 0.8
v 1.1 2.9 0.8
v -1 2.9 0.1
v 1.1 2.9 0.1
v -1 2.9 0
v 1.1 2.9 0
v -1 2.9 -0.7
v -0.9 2.9 -0.7
v 1 2.9 -0.7
v 1.1 2.9 -0.7
v -0.9 2.9 -0.8
v -0.8 2.9 -0.8
v 0.9 2.9 -0.8
v 1 2.9 -0.8
v -1.2 2.9 -0.9
v -1.1 2.9 -0.9
v -0.8 2.9 -0.9
v 0.9 2.9 -0.9
v 1.2 2.9 -0.9
v 1.3 2.9 -0.9
v -1.1 2.9 -1
v -1 2.9 -1
v 1.1 2.9 -1
v 1.2 2.9 -1
v -1 2.9 -1.1
v 1.1 2.9 -1.1
v -0.8 3 1
v 0.9 3 1
v -0.9 3 0.9
v -0.8 3 0.9
v 0.9 3 0.9
v 1 3 0.9
v -1 3 0.8
v -0.9 3 0.8
v 1 3 0.8
v 1.1 3 0.8
v -1 3 0.1
v 1.1 3 0.1
v -1 3 0
v 1.1 3 0
v -1 3 -0.7
v -0.9 3 -0.7
v 1 3 -0.7
v 1.1 3 -0.7
v -0.9 3 -0.8
v -0.8 3 -0.8
v 0.9 3 -0.8
v 1 3 -0.8
v -0.8 3 -0.9
v 0.9 3 -0.9

# faces
f 3/1/1 2/1/1 1/1/1
f 4/1/1 2/1/1 3/1/1
f 7/1/1 6/1/1 5/1/1
f 8/1/1 6/1/1 7/1/1
f 9/1/1 7/1/1 5/1/1
f 10/1/1 7/1/1 9/1/1
f 13/1/1 6/1/1 8/1/1
f 14/1/1 6/1/1 13/1/1
f 15/1/1 12/1/1 11/1/1
f 16/1/1 12/1/1 15/1/1
f 21/1/1 18/1/1 17/1/1
f 22/1/1 18/1/1 21/1/1
f 27/1/1 20/1/1 19/1/1
f 28/1/1 20/1/1 27/1/1
f 29/1/1 24/1/1 23/1/1
f 30/1/1 24/1/1 29/1/1
f 33/1/1 26/1/1 25/1/1
f 34/1/1 26/1/1 33/1/1
f 35/2/1 32/2/1 31/2/1
f 36/2/1 32/2/1 35/2/1
f 41/1/1 38/1/1 37/1/1
f 42/1/1 38/1/1 41/1/1
f 47/1/1 40/1/1 39/1/1
f 48/1/1 40/1/1 47/1/1
f 49/2/1 44/2/1 43/2/1
f 50/2/1 44/2/1 49/2/1
f 51/2/1 46/2/1 45/2/1
f 52/2/1 46/2/1 51/2/1
f 57/2/1 54/2/1 53/2/1
f 58/2/1 54/2/1 57/2/1
f 63/2/1 56/2/1 55/2/1
f 64/2/1 56/2/1 63/2/1
f 65/1/1 60/1/1 59/1/1
f 66/1/1 60/1/1 65/1/1
f 67/1/1 62/1/1 61/1/1
f 68/1/1 62/1/1 67/1/1
f 73/1/1 70/1/1 69/1/1
f 74/1/1 70/1/1 73/1/1
f 75/1/1 72/1/1 71/1/1
f 76/1/1 72/1/1 75/1/1
f 81/1/1 78/1/1 77/1/1
f 82/1/1 78/1/1 81/1/1
f 83/1/1 80/1/1 79/1/1
f 84/1/1 80/1/1 83/1/1
f 89/3/1 86/3/1 85/3/1
f 90/3/1 86/3/1 89/3/1
f 91/3/1 88/3/1 87/3/1
f 92/3/1 88/3/1 91/3/1
f 93/2/1 90/2/1 89/2/1
f 94/2/1 90/2/1 93/2/1
f 95/2/1 92/2/1 91/2/1
f 96/2/1 92/2/1 95/2/1
f 97/3/2 98/3/2 101/3/2
f 101/3/2 98/3/2 102/3/2
f 99/3/2 100/3/2 103/3/2
f 103/3/2 100/3/2 104/3/2
f 101/2/2 102/2/2 105/2/2
f 105/2/2 102/2/2 106/2/2
f 103/2/2 104/2/2 107/2/2
f 107/2/2 104/2/2 108/2/2
f 109/1/2 110/1/2 113/1/2
f 113/1/2 110/1/2 114/1/2
f 111/1/2 112/1/2 115/1/2
f 115/1/2 112/1/2 116/1/2
f 117/1/2 118/1/2 121/1/2
f 121/1/2 118/1/2 122/1/2
f 119/1/2 120/1/2 123/1/2
f 123/1/2 120/1/2 124/1/2
f 125/2/2 126/2/2 129/2/2
f 129/2/2 126/2/2 130/2/2
f 127/2/2 128/2/2 135/2/2
f 135/2/2 128/2/2 136/2/2
f 131/1/2 132/1/2 137/1/2
f 137/1/2 132/1/2 138/1/2
f 133/1/2 134/1/2 139/1/2
f 139/1/2 134/1/2 140/1/2
f 141/1/2 142/1/2 145/1/2
f 145/1/2 142/1/2 146/1/2
f 143/1/2 144/1/2 151/1/2
f 151/1/2 144/1/2 152/1/2
f 147/2/2 148/2/2 153/2/2
f 153/2/2 148/2/2 154/2/2
f 149/2/2 150/2/2 155/2/2
f 155/2/2 150/2/2 156/2/2
f 157/1/2 158/1/2 161/1/2
f 161/1/2 158/1/2 162/1/2
f 159/1/2 160/1/2 167/1/2
f 167/1/2 160/1/2 168/1/2
f 163/1/2 164/1/2 169/1/2
f 169/1/2 164/1/2 170/1/2
f 165/1/2 166/1/2 173/1/2
f 173/1/2 166/1/2 174/1/2
f 171/2/2 172/2/2 175/2/2
f 175/2/2 172/2/2 176/2/2
f 177/1/2 178/1/2 179/1/2
f 179/1/2 178/1/2 180/1/2
f 177/1/2 179/1/2 181/1/2
f 181/1/2 179/1/2 182/1/2
f 180/1/2 178/1/2 185/1/2
f 185/1/2 178/1/2 186/1/2
f 183/1/2 184/1/2 187/1/2
f 187/1/2 184/1/2 188/1/2
f 189/1/2 190/1/2 191/1/2
f 191/1/2 190/1/2 192/1/2
f 195/1/3 194/1/3 193/1/3
f 196/1/3 194/1/3 195/1/3
f 199/1/3 198/1/3 197/1/3
f 200/1/3 198/1/3 199/1/3
f 203/1/3 202/1/3 201/1/3
f 204/1/3 202/1/3 203/1/3
f 205/1/3 199/1/3 197/1/3
f 207/1/3 205/1/3 197/1/3
f 207/1/3 206/1/3 205/1/3
f 208/1/3 206/1/3 207/1/3
f 211/1/3 210/1/3 209/1/3
f 212/1/3 210/1/3 211/1/3
f 215/1/3 214/1/3 213/1/3
f 216/1/3 214/1/3 215/1/3
f 219/2/3 218/2/3 217/2/3
f 220/2/3 218/2/3 219/2/3
f 223/1/3 222/1/3 221/1/3
f 224/1/3 222/1/3 223/1/3
f 227/1/3 226/1/3 225/1/3
f 228/1/3 226/1/3 227/1/3
f 231/1/3 230/1/3 229/1/3
f 232/1/3 230/1/3 231/1/3
f 235/2/3 234/2/3 233/2/3
f 236/2/3 234/2/3 235/2/3
f 239/2/3 238/2/3 237/2/3
f 240/2/3 238/2/3 239/2/3
f 243/1/3 242/1/3 241/1/3
f 244/1/3 242/1/3 243/1/3
f 247/2/3 246/2/3 245/2/3
f 248/2/3 246/2/3 247/2/3
f 251/1/3 250/1/3 249/1/3
f 252/1/3 250/1/3 251/1/3
f 255/2/3 254/2/3 253/2/3
f 256/2/3 254/2/3 255/2/3
f 259/1/3 258/1/3 257/1/3
f 260/1/3 258/1/3 259/1/3
f 263/1/3 262/1/3 261/1/3
f 264/1/3 262/1/3 263/1/3
f 267/1/3 266/1/3 265/1/3
f 268/1/3 266/1/3 267/1/3
f 271/1/3 270/1/3 269/1/3
f 272/1/3 270/1/3 271/1/3
f 276/3/3 274/3/3 273/3/3
f 277/2/3 275/2/3 274/2/3
f 277/3/3 274/3/3 276/3/3
f 278/2/3 275/2/3 277/2/3
f 281/1/3 280/1/3 279/1/3
f 282/1/3 280/1/3 281/1/3
f 286/3/3 284/3/3 283/3/3
f 287/2/3 285/2/3 284/2/3
f 287/3/3 284/3/3 286/3/3
f 288/2/3 285/2/3 287/2/3
f 289/3/4 290/3/4 292/3/4
f 290/2/4 291/2/4 293/2/4
f 292/3/4 290/3/4 293/3/4
f 293/2/4 291/2/4 294/2/4
f 295/1/4 296/1/4 297/1/4
f 297/1/4 296/1/4 298/1/4
f 299/3/4 300/3/4 302/3/4
f 300/2/4 301/2/4 303/2/4
f 302/3/4 300/3/4 303/3/4
f 303/2/4 301/2/4 304/2/4
f 305/1/4 306/1/4 307/1/4
f 307/1/4 306/1/4 308/1/4
f 309/1/4 310/1/4 311/1/4
f 311/1/4 310/1/4 312/1/4
f 313/1/4 314/1/4 315/1/4
f 315/1/4 314/1/4 316/1/4
f 317/1/4 318/1/4 319/1/4
f 319/1/4 318/1/4 320/1/4
f 321/2/4 322/2/4 323/2/4
f 323/2/4 322/2/4 324/2/4
f 325/1/4 326/1/4 327/1/4
f 327/1/4 326/1/4 328/1/4
f 329/2/4 330/2/4 331/2/4
f 331/2/4 330/2/4 332/2/4
f 333/1/4 334/1/4 335/1/4
f 335/1/4 334/1/4 336/1/4
f 337/2/4 338/2/4 339/2/4
f 339/2/4 338/2/4 340/2/4
f 341/2/4 342/2/4 343/2/4
f 343/2/4 342/2/4 344/2/4
f 345/1/4 346/1/4 347/1/4
f 347/1/4 346/1/4 348/1/4
f 349/1/4 350/1/4 351/1/4
f 351/1/4 350/1/4 352/1/4
f 353/1/4 354/1/4 355/1/4
f 355/1/4 354/1/4 356/1/4
f 357/2/4 358/2/4 359/2/4
f 359/2/4 358/2/4 360/2/4
f 361/1/4 362/1/4 363/1/4
f 363/1/4 362/1/4 364/1/4
f 365/1/4 366/1/4 367/1/4
f 367/1/4 366/1/4 368/1/4
f 369/1/4 370/1/4 371/1/4
f 371/1/4 370/1/4 372/1/4
f 373/1/4 374/1/4 375/1/4
f 375/1/4 374/1/4 376/1/4
f 369/1/4 371/1/4 377/1/4
f 369/1/4 377/1/4 379/1/4
f 377/1/4 378/1/4 379/1/4
f 379/1/4 378/1/4 380/1/4
f 381/1/4 382/1/4 383/1/4
f 383/1/4 382/1/4 384/1/4
f 387/1/5 386/1/5 385/1/5
f 388/1/5 386/1/5 387/1/5
f 391/1/5 390/1/5 389/1/5
f 392/1/5 390/1/5 391/1/5
f 397/1/5 394/1/5 393/1/5
f 398/1/5 394/1/5 397/1/5
f 399/1/5 396/1/5 395/1/5
f 400/1/5 396/1/5 399/1/5
f 403/1/5 402/1/5 401/1/5
f 404/1/5 402/1/5 403/1/5
f 407/1/5 406/1/5 405/1/5
f 408/1/5 406/1/5 407/1/5
f 411/1/5 410/1/5 409/1/5
f 412/1/5 410/1/5 411/1/5
f 413/1/6 414/1/6 416/1/6
f 416/1/6 414/1/6 417/1/6
f 417/1/6 414/1/6 418/1/6
f 418/1/6 414/1/6 419/1/6
f 415/1/6 416/1/6 422/1/6
f 416/1/6 417/1/6 422/1/6
f 422/1/6 417/1/6 423/1/6
f 423/1/6 417/1/6 424/1/6
f 418/1/6 419/1/6 425/1/6
f 419/1/6 420/1/6 425/1/6
f 425/1/6 420/1/6 426/1/6
f 426/1/6 420/1/6 427/1/6
f 422/1/6 423/1/6 429/1/6
f 421/1/6 422/1/6 429/1/6
f 429/1/6 423/1/6 430/1/6
f 427/1/6 428/1/6 431/1/6
f 426/1/6 427/1/6 431/1/6
f 431/1/6 428/1/6 432/1/6
f 433/3/6 434/3/6 435/3/6
f 435/3/6 434/3/6 436/3/6
f 437/3/6 438/3/6 439/3/6
f 439/3/6 438/3/6 440/3/6
f 421/1/6 429/1/6 441/1/6
f 432/1/6 428/1/6 444/1/6
f 441/1/6 442/1/6 445/1/6
f 421/1/6 441/1/6 445/1/6
f 445/1/6 442/1/6 446/1/6
f 446/1/6 442/1/6 447/1/6
f 443/1/6 444/1/6 450/1/6
f 444/1/6 428/1/6 451/1/6
f 450/1/6 444/1/6 451/1/6
f 451/1/6 428/1/6 452/1/6
f 447/1/6 448/1/6 453/1/6
f 446/1/6 447/1/6 453/1/6
f 453/1/6 448/1/6 454/1/6
f 454/1/6 448/1/6 455/1/6
f 449/1/6 450/1/6 456/1/6
f 450/1/6 451/1/6 456/1/6
f 456/1/6 451/1/6 457/1/6
f 457/1/6 451/1/6 458/1/6
f 454/1/6 455/1/6 459/1/6
f 456/1/6 457/1/6 459/1/6
f 455/1/6 456/1/6 459/1/6
f 459/1/6 457/1/6 460/1/6
f 461/1/6 462/1/6 464/1/6
f 464/1/6 462/1/6 465/1/6
f 465/1/6 462/1/6 466/1/6
f 466/1/6 462/1/6 467/1/6
f 463/1/6 464/1/6 470/1/6
f 464/1/6 465/1/6 470/1/6
f 470/1/6 465/1/6 471/1/6
f 471/1/6 465/1/6 472/1/6
f 466/1/6 467/1/6 473/1/6
f 467/1/6 468/1/6 473/1/6
f 473/1/6 468/1/6 474/1/6
f 474/1/6 468/1/6 475/1/6
f 470/1/6 471/1/6 477/1/6
f 469/1/6 470/1/6 477/1/6
f 477/1/6 471/1/6 478/1/6
f 475/1/6 476/1/6 479/1/6
f 474/1/6 475/1/6 479/1/6
f 479/1/6 476/1/6 480/1/6
f 469/1/6 477/1/6 481/1/6
f 480/1/6 476/1/6 484/1/6
f 481/1/6 482/1/6 485/1/6
f 469/1/6 481/1/6 485/1/6
f 485/1/6 482/1/6 486/1/6
f 486/1/6 482/1/6 487/1/6
f 483/1/6 484/1/6 490/1/6
f 484/1/6 476/1/6 491/1/6
f 490/1/6 484/1/6 491/1/6
f 491/1/6 476/1/6 492/1/6
f 487/1/6 488/1/6 493/1/6
f 486/1/6 487/1/6 493/1/6
f 493/1/6 488/1/6 494/1/6
f 494/1/6 488/1/6 495/1/6
f 489/1/6 490/1/6 496/1/6
f 490/1/6 491/1/6 496/1/6
f 496/1/6 491/1/6 497/1/6
f 497/1/6 491/1/6 498/1/6
f 494/1/6 495/1/6 499/1/6
f 496/1/6 497/1/6 499/1/6
f 495/1/6 496/1/6 499/1/6
f 499/1/6 497/1/6 500/1/6
f 501/2/6 502/2/6 504/2/6
f 504/2/6 502/2/6 505/2/6
f 503/2/6 504/2/6 508/2/6
f 505/2/6 506/2/6 508/2/6
f 504/2/6 505/2/6 508/2/6
f 508/2/6 506/2/6 509/2/6
f 509/2/6 506/2/6 510/2/6
f 510/2/6 506/2/6 511/2/6
f 507/2/6 508/2/6 513/2/6
f 508/2/6 509/2/6 513/2/6
f 513/2/6 509/2/6 514/2/6
f 511/2/6 512/2/6 515/2/6
f 510/2/6 511/2/6 515/2/6
f 515/2/6 512/2/6 516/2/6
f 507/2/6 513/2/6 517/2/6
f 517/2/6 513/2/6 518/2/6
f 516/2/6 512/2/6 519/2/6
f 519/2/6 512/2/6 520/2/6
f 507/2/6 517/2/6 521/2/6
f 520/2/6 512/2/6 522/2/6
f 507/2/6 521/2/6 523/2/6
f 521/2/6 522/2/6 523/2/6
f 522/2/6 512/2/6 524/2/6
f 523/2/6 522/2/6 524/2/6
f 507/2/6 523/2/6 525/2/6
f 524/2/6 512/2/6 528/2/6
f 525/2/6 526/2/6 529/2/6
f 527/2/6 528/2/6 532/2/6
f 529/2/6 530/2/6 533/2/6
f 507/2/6 525/2/6 533/2/6
f 525/2/6 529/2/6 533/2/6
f 533/2/6 530/2/6 534/2/6
f 534/2/6 530/2/6 535/2/6
f 531/2/6 532/2/6 536/2/6
f 532/2/6 528/2/6 537/2/6
f 528/2/6 512/2/6 537/2/6
f 536/2/6 532/2/6 537/2/6
f 537/2/6 512/2/6 538/2/6
f 534/2/6 535/2/6 539/2/6
f 535/2/6 536/2/6 539/2/6
f 536/2/6 537/2/6 539/2/6
f 539/2/6 537/2/6 540/2/6
f 540/2/6 537/2/6 541/2/6
f 541/2/6 537/2/6 542/2/6
f 540/2/6 541/2/6 543/2/6
f 543/2/6 541/2/6 544/2/6
f 545/1/6 546/1/6 548/1/6
f 548/1/6 546/1/6 549/1/6
f 547/1/6 548/1/6 552/1/6
f 549/1/6 550/1/6 552/1/6
f 548/1/6 549/1/6 552/1/6
f 552/1/6 550/1/6 553/1/6
f 551/1/6 552/1/6 555/1/6
f 553/1/6 554/1/6 555/1/6
f 552/1/6 553/1/6 555/1/6
f 555/1/6 554/1/6 556/1/6
f 557/1/6 558/1/6 559/1/6
f 559/1/6 558/1/6 560/1/6
f 560/1/6 558/1/6 561/1/6
f 561/1/6 558/1/6 562/1/6
f 560/1/6 561/1/6 563/1/6
f 563/1/6 561/1/6 564/1/6
f 564/1/6 561/1/6 565/1/6
f 565/1/6 561/1/6 566/1/6
f 564/1/6 565/1/6 567/1/6
f 567/1/6 565/1/6 568/1/6
